<svg viewBox="0 0 40 40" fill="none" xmlns="http://www.w3.org/2000/svg">
    <g id="Blogger" clip-path="url(#clip0_1170_3155)">
        <g id="Group 1000000859">
            <path id="Vector"
                  d="M24.0374 21.9718C24.6008 21.9718 25.0704 22.191 25.4459 22.6292C25.8214 23.0046 26.0093 23.474 26.0093 24.0375C26.0093 24.6011 25.8214 25.0705 25.4458 25.446C25.0704 25.8215 24.601 26.0094 24.0374 26.0094H15.8685C15.305 26.0094 14.8354 25.8215 14.46 25.4459C14.0843 25.0705 13.8965 24.6011 13.8965 24.0375C13.8965 23.474 14.0843 23.0046 14.46 22.6291C14.8355 22.1908 15.3051 21.9718 15.8685 21.9718H24.0374ZM15.8685 15.9625C15.305 15.9625 14.8354 15.7746 14.46 15.3989C14.0843 15.0234 13.8965 14.5538 13.8965 13.9905C13.8965 13.4271 14.0843 12.9578 14.46 12.5821C14.8355 12.2064 15.3051 12.0186 15.8685 12.0186H21.1266C21.6901 12.0186 22.1597 12.2064 22.535 12.5821C22.9107 12.9577 23.0986 13.4271 23.0986 13.9905C23.0986 14.5538 22.9107 15.0236 22.535 15.3989C22.1595 15.7746 21.6899 15.9625 21.1266 15.9625H15.8685ZM27.9808 15.9625V12.0186C27.9808 10.3909 27.3862 8.98244 26.197 7.79315C25.0075 6.60387 23.599 6.00914 21.9715 6.00914H13.9902C12.3627 6.00914 10.9544 6.60387 9.76496 7.79315C8.57552 8.98244 7.98096 10.3909 7.98096 12.0186V26.0091C7.98096 27.6366 8.57568 29.0451 9.76496 30.2344C10.9542 31.4238 12.3627 32.0185 13.9902 32.0185H26.0091C27.6366 32.0185 29.045 31.4238 30.2344 30.2344C31.4238 29.0451 32.0186 27.6366 32.0186 26.0091V19.9998C32.0186 19.4362 31.8307 18.9666 31.455 18.5911C31.0795 18.2156 30.6101 18.0278 30.0467 18.0278C29.4834 18.0278 28.9826 17.8399 28.5443 17.4644C28.1686 17.0261 27.9808 16.5253 27.9808 15.962V15.9623V15.9625ZM36.0565 0C37.1206 0 38.0282 0.406882 38.7794 1.22064C39.5931 1.97185 40 2.87953 40 3.9437V36.0563C40 37.1205 39.5931 38.0595 38.7794 38.8733C38.0282 39.6245 37.1206 40 36.0565 40H3.94368C2.87952 40 1.94048 39.6245 1.12672 38.8733C0.37552 38.0595 0 37.1206 0 36.0565V3.9437C0 2.87953 0.37552 1.97185 1.12672 1.22064C1.94048 0.406882 2.87952 0 3.94368 0H36.0565Z"
                  fill="#9E9E9E"/>
            <path id="Vector_2"
                  d="M13.1417 31.9263C11.2759 31.6869 9.44966 30.3194 8.57894 28.5096C8.01334 27.3338 8.0503 27.9992 8.0503 19.0417C8.0503 11.4563 8.05686 11.0331 8.18278 10.5633C8.74438 8.46874 10.4205 6.80345 12.5721 6.20313C13.1313 6.04713 13.1895 6.04521 17.9418 6.04329C22.6991 6.04137 22.7525 6.04313 23.3719 6.20073C25.0413 6.62617 26.5605 7.86521 27.3351 9.43274C27.8807 10.5369 27.8847 10.5667 27.9324 13.7073L27.9748 16.4984L28.1586 16.8869C28.5116 17.6331 28.9669 17.9227 30.0002 18.0573C30.7757 18.1584 31.105 18.2905 31.4394 18.6349C31.9533 19.164 31.9314 18.9582 31.9314 23.2458C31.9314 27.0877 31.9311 27.0978 31.7658 27.6239C31.4237 28.7135 30.8789 29.5695 30.0138 30.3776C29.0692 31.2597 28.0365 31.7562 26.7834 31.9304C26.11 32.0242 13.8757 32.0204 13.1417 31.9263ZM24.8661 25.8693C25.2873 25.6774 25.5924 25.3899 25.8049 24.9851C25.9676 24.6752 25.9948 24.5374 25.9948 24.0229C25.9949 23.3288 25.8805 23.0467 25.3964 22.548C24.8122 21.9459 25.1092 21.9773 19.9519 21.9755L15.3909 21.9739L15.0268 22.1552C14.3641 22.4856 13.9506 23.1194 13.8953 23.8898C13.8335 24.7491 14.2194 25.4525 14.9532 25.8182L15.3201 26.0011L19.9517 25.9995C24.2815 25.9981 24.6021 25.9896 24.8661 25.8693ZM21.9692 15.7996C22.7301 15.4393 23.0967 14.851 23.0967 13.9899C23.0967 13.1288 22.721 12.53 21.9692 12.1784L21.6159 12.0131L18.5373 12.0123C16.1732 12.0117 14.806 12.2029 14.4357 12.5859C14.0452 12.987 13.8793 13.4166 13.8793 14.0267C13.8793 14.8198 14.4097 15.606 15.113 15.8558C15.3434 15.9377 15.9972 15.958 18.5071 15.962L21.6159 15.9668L21.9692 15.7996Z"
                  fill="white"/>
        </g>
    </g>
    <defs>
        <clipPath id="clip0_1170_3155">
            <rect width="40" height="40" fill="white"/>
        </clipPath>
    </defs>
</svg>
