<svg viewBox="0 0 40 40" fill="none" xmlns="http://www.w3.org/2000/svg">
    <g id="Shopify" clip-path="url(#clip0_1170_3031)">
        <g id="Group 1000000857">
            <path id="Vector"
                  d="M18.5915 1.29725C18.8793 1.29725 19.0232 1.44112 19.3109 1.585C17.5844 2.30438 15.8579 4.17477 14.9946 8.20331L11.8293 9.06657C12.8365 6.18904 14.8507 1.29725 18.5915 1.29725ZM20.1742 2.73601C20.4619 3.59927 20.7497 4.6064 20.7497 6.18904V6.4768L16.5773 7.62781C17.4405 4.6064 18.8793 3.31152 20.1742 2.73601ZM23.915 5.32579L22.0446 5.90129V5.46966C22.0446 4.17477 21.9007 3.16764 21.6129 2.30438C22.6201 2.59213 23.4833 3.88702 23.915 5.32579ZM33.2669 7.62781C33.2669 7.48393 33.123 7.34006 32.9792 7.34006C32.6914 7.34006 29.67 7.0523 29.67 7.0523C29.67 7.0523 27.5119 4.89416 27.2241 4.75028C26.9364 4.46253 26.5047 4.6064 26.3609 4.6064C26.3609 4.6064 25.9292 4.75028 25.2098 5.03803C24.4905 3.02376 23.1956 1.15337 21.0374 1.15337H20.8936C20.318 0.290111 19.4548 0.00235853 18.7354 0.00235853C13.5559 -0.141518 11.11 6.33292 10.2467 9.64208C9.09569 9.92983 7.94468 10.3615 6.64979 10.7931C5.49878 11.0808 5.49878 11.2247 5.3549 12.2319C5.21102 12.9512 2.3335 35.6837 2.3335 35.6837L25.2098 40L37.5832 37.2663C37.5832 37.2663 33.2669 7.91556 33.2669 7.62781Z"
                  fill="#9E9E9E"/>
            <path id="Vector_2"
                  d="M32.8354 7.3401C32.6915 7.3401 29.6701 7.05234 29.6701 7.05234C29.6701 7.05234 27.512 4.8942 27.2242 4.75032C27.1283 4.6544 27.0324 4.60645 26.9365 4.60645L25.21 40L37.5833 37.2664C37.5833 37.2664 33.267 7.9156 33.267 7.62785C33.267 7.48397 32.9793 7.3401 32.8354 7.3401Z"
                  fill="#606060"/>
            <path id="Vector_3"
                  d="M21.0372 14.2459L19.4546 18.8499C19.4546 18.8499 18.1597 18.1306 16.4332 18.1306C13.9873 18.1306 13.8434 19.5693 13.8434 20.001C13.8434 22.0152 19.3107 22.8785 19.3107 27.7703C19.3107 31.6549 16.8648 34.1008 13.5557 34.1008C9.67101 34.1008 7.65674 31.6549 7.65674 31.6549L8.66387 28.2019C8.66387 28.2019 10.6781 29.9284 12.4047 29.9284C13.5557 29.9284 13.9873 29.0652 13.9873 28.3458C13.9873 25.6121 9.52713 25.4683 9.52713 21.0081C9.52713 17.2673 12.2608 13.6704 17.5842 13.6704C20.0301 13.5265 21.0372 14.2459 21.0372 14.2459Z"
                  fill="#FFFFFE"/>
        </g>
    </g>
    <defs>
        <clipPath id="clip0_1170_3031">
            <rect width="40" height="40" fill="white"/>
        </clipPath>
    </defs>
</svg>
