<svg width="32" height="32" viewBox="0 0 32 32" fill="none" xmlns="http://www.w3.org/2000/svg">
<mask id="mask0_1170_4063" style="mask-type:alpha" maskUnits="userSpaceOnUse" x="0" y="0" width="32" height="32">
<rect width="32" height="32" fill="#D9D9D9"/>
</mask>
<g mask="url(#mask0_1170_4063)">
<path d="M15.9999 24.6205L19.3948 21.2256C19.5931 21.0273 19.832 20.926 20.1114 20.9217C20.3909 20.9175 20.6341 21.0188 20.8409 21.2256C21.0477 21.4324 21.1512 21.6734 21.1512 21.9486C21.1512 22.2239 21.0477 22.4649 20.8409 22.6717L16.8435 26.6691C16.7187 26.7939 16.5871 26.882 16.4486 26.9332C16.3102 26.9845 16.1606 27.0102 15.9999 27.0102C15.8392 27.0102 15.6896 26.9845 15.5512 26.9332C15.4127 26.882 15.2811 26.7939 15.1563 26.6691L11.1589 22.6717C10.9606 22.4734 10.8593 22.2345 10.855 21.9551C10.8508 21.6756 10.9521 21.4324 11.1589 21.2256C11.3657 21.0188 11.6067 20.9153 11.8819 20.9153C12.1572 20.9153 12.3982 21.0188 12.605 21.2256L15.9999 24.6205ZM15.9999 7.46144L12.605 10.8563C12.4067 11.0546 12.1678 11.1559 11.8884 11.1602C11.6089 11.1644 11.3657 11.0632 11.1589 10.8563C10.9521 10.6495 10.8486 10.4085 10.8486 10.1333C10.8486 9.85808 10.9521 9.61705 11.1589 9.41021L15.1563 5.41278C15.2811 5.288 15.4127 5.19996 15.5512 5.14868C15.6896 5.09741 15.8392 5.07178 15.9999 5.07178C16.1606 5.07178 16.3102 5.09741 16.4486 5.14868C16.5871 5.19996 16.7187 5.288 16.8435 5.41278L20.8409 9.41021C21.0392 9.6085 21.1405 9.84739 21.1448 10.1269C21.149 10.4063 21.0477 10.6495 20.8409 10.8563C20.6341 11.0632 20.3931 11.1666 20.1179 11.1666C19.8426 11.1666 19.6016 11.0632 19.3948 10.8563L15.9999 7.46144Z" fill="#9E9E9E"/>
</g>
</svg>
