<svg viewBox="0 0 40 40" fill="none" xmlns="http://www.w3.org/2000/svg">
    <path d="M22.8857 12.6235C22.0932 13.039 21.7974 13.7403 21.7974 15.6779C21.7974 15.6779 22.1988 15.2897 22.7943 15.074C23.228 14.9163 23.5986 14.6774 23.8132 14.5204C24.4829 14.0296 24.5862 13.3975 24.5862 12.3342C24.5862 12.3342 23.4942 12.3045 22.8857 12.6235Z"
          fill="#F9C638"/>
    <path d="M18.1846 13.0778C17.5382 13.6476 17.3491 14.5557 17.3491 14.5557L15.2092 22.847L13.429 16.0614C13.2556 15.34 12.9431 14.448 12.4489 13.845C11.8189 13.0764 10.5385 13.0285 10.4025 13.0285C10.2665 13.0285 8.98538 13.0762 8.35558 13.845C7.86109 14.448 7.54842 15.34 7.37525 16.0614L5.5957 22.847L3.45511 14.5557C3.45511 14.5557 3.26652 13.6476 2.62013 13.0778C1.57203 12.1536 0 12.3515 0 12.3515L4.09799 27.847C4.09799 27.847 5.45012 27.944 6.12641 27.5991C7.01537 27.1464 7.43788 26.7968 7.97607 24.6887C8.45537 22.8087 9.79581 17.288 9.9206 16.8949C9.98253 16.7007 10.0611 16.2364 10.402 16.2364C10.743 16.2364 10.8226 16.7005 10.8836 16.8949C11.0066 17.2887 12.3489 22.8089 12.8282 24.6887C13.3657 26.7966 13.7891 27.1464 14.6774 27.5991C15.3539 27.944 16.7058 27.847 16.7058 27.847L20.804 12.3515C20.804 12.3515 19.2324 12.1536 18.1843 13.0778M24.5851 14.8815C24.5851 14.8815 24.3285 15.2778 23.7438 15.6047C23.3681 15.8146 23.0077 15.9569 22.6209 16.1422C21.9727 16.4537 21.7974 16.8 21.7974 17.3287V27.847C21.7974 27.847 22.8313 27.9779 23.5078 27.6327C24.379 27.189 24.5788 26.7613 24.5863 24.8341V15.4423H24.5853V14.8815M34.8006 20.1362L40 12.4027C40 12.4027 37.8057 12.029 36.719 13.0182C36.0238 13.6515 35.246 14.7894 35.246 14.7894L33.3331 17.5476C33.2403 17.6909 33.1185 17.847 32.925 17.847C32.7315 17.847 32.6093 17.6909 32.5168 17.5476L30.6033 14.7894C30.6033 14.7894 29.8258 13.6515 29.1304 13.0182C28.0435 12.029 25.8491 12.4027 25.8491 12.4027L31.0492 20.1367L25.8632 27.847C25.8632 27.847 28.1486 28.1352 29.2351 27.146C29.9305 26.5131 30.6038 25.4842 30.6038 25.4842L32.5172 22.7262C32.61 22.5827 32.7315 22.4266 32.9255 22.4266C33.1195 22.4266 33.241 22.5827 33.3335 22.7262L35.2465 25.4842C35.2465 25.4842 35.9593 26.5134 36.6547 27.146C37.7414 28.1352 39.9869 27.847 39.9869 27.847L34.8011 20.1364"
          fill="#2A2D2C"/>
</svg>
