<svg viewBox="0 0 40 40" fill="none" xmlns="http://www.w3.org/2000/svg">
    <g clip-path="url(#clip0_1170_2933)">
        <path d="M20.0003 40C8.91676 40 -0.0830998 31.1664 0.00057883 20C0.0840975 8.8336 8.50044 0 20.0003 0C31.5001 0 39.9999 9 39.9999 20C39.9999 31 31.0836 40 20.0003 40ZM25.9166 36.9165L20.2503 21.6664L14.9168 37.2499C18.8339 38.167 21.5002 38.4163 25.9166 36.9163V36.9165ZM12.0841 36.0837L3.58404 12.8336C2.41686 15.3336 2.16758 17.4171 2.00055 20C2.08407 26.8328 5.91696 33.0829 12.0839 36.0835L12.0841 36.0837ZM37.9173 20.0002C38.0001 15.5837 36.0008 12.0837 35.8338 11.5837C36.001 15.0008 35.5002 16.7501 34.9173 18.6672L29.0838 35.4171C36.4173 31 37.8329 24.4163 38.0001 20H37.9173V20.0002ZM19.4175 19.2502L16.584 11.5002L14.5005 11.3338C13.6677 10.7502 14.1669 9.83376 14.7504 9.83376C18.5004 10.0837 20.5831 10.0837 24.3338 9.83376C25.2509 9.83376 25.5002 11.1674 24.4167 11.3338L22.4167 11.5002L28.9158 30.6666L31.9986 20.1666C32.1658 15.5837 30.9151 15.0837 29.2486 11.7501C27.915 9.16656 29.3321 6.66656 31.9157 6.58368C29.8315 4.58368 25.5822 2.08368 19.9988 2.00016C14.4154 1.91664 8.499 4.75024 4.99906 10.0837L11.1662 9.91728C11.9161 10.2509 11.5826 11.3338 11.1662 11.4173L8.99979 11.5837L15.4997 31.0837L19.4175 19.2501V19.2502Z"
              fill="#0675C4"/>
    </g>
    <defs>
        <clipPath id="clip0_1170_2933">
            <rect width="40" height="40" fill="white"/>
        </clipPath>
    </defs>
</svg>
