<svg viewBox="0 0 1228 477" fill="none" xmlns="http://www.w3.org/2000/svg">
    <path d="M0.360002 393.8V305.48L202.6 16.2H324.84V299.08H377.32V393.8H324.84V477H215.4V393.8H0.360002ZM223.08 136.52L115.56 299.08H223.08V136.52ZM430.925 237C430.925 163.613 445.005 105.8 473.165 63.56C501.752 21.32 547.618 0.199959 610.765 0.199959C673.912 0.199959 719.565 21.32 747.725 63.56C776.312 105.8 790.605 163.613 790.605 237C790.605 311.24 776.312 369.48 747.725 411.72C719.565 453.96 673.912 475.08 610.765 475.08C547.618 475.08 501.752 453.96 473.165 411.72C445.005 369.48 430.925 311.24 430.925 237ZM683.085 237C683.085 193.907 678.392 160.84 669.005 137.8C659.618 114.333 640.205 102.6 610.765 102.6C581.325 102.6 561.912 114.333 552.525 137.8C543.138 160.84 538.445 193.907 538.445 237C538.445 266.013 540.152 290.12 543.565 309.32C546.978 328.093 553.805 343.453 564.045 355.4C574.712 366.92 590.285 372.68 610.765 372.68C631.245 372.68 646.605 366.92 656.845 355.4C667.512 343.453 674.552 328.093 677.965 309.32C681.378 290.12 683.085 266.013 683.085 237ZM850.985 393.8V305.48L1053.23 16.2H1175.47V299.08H1227.95V393.8H1175.47V477H1066.03V393.8H850.985ZM1073.71 136.52L966.185 299.08H1073.71V136.52Z"
          fill="#6E51D9" fill-opacity="0.08"/>
</svg>
