<svg viewBox="0 0 25 24" fill="none" xmlns="http://www.w3.org/2000/svg">
<g id="arrow_back">
<mask id="mask0_1710_3377" style="mask-type:alpha" maskUnits="userSpaceOnUse" x="0" y="0" width="25" height="24">
<rect id="Bounding box" x="0.5" width="24" height="24" fill="#D9D9D9"/>
</mask>
<g mask="url(#mask0_1710_3377)">
<path id="arrow_back_2" d="M7.873 12.7481L13.0422 17.9174C13.1909 18.066 13.2643 18.24 13.2625 18.4394C13.2605 18.6387 13.182 18.8159 13.027 18.9711C12.8718 19.1159 12.6962 19.1909 12.5 19.1961C12.3038 19.2013 12.1282 19.1263 11.973 18.9711L5.63275 12.6309C5.53908 12.5372 5.47308 12.4384 5.43475 12.3346C5.39625 12.2308 5.377 12.1186 5.377 11.9981C5.377 11.8776 5.39625 11.7654 5.43475 11.6616C5.47308 11.5578 5.53908 11.459 5.63275 11.3654L11.973 5.0251C12.1115 4.8866 12.283 4.81577 12.4875 4.8126C12.692 4.80943 12.8718 4.88027 13.027 5.0251C13.182 5.18027 13.2595 5.35844 13.2595 5.5596C13.2595 5.76094 13.182 5.93918 13.027 6.09435L7.873 11.2481H19.25C19.4628 11.2481 19.641 11.3199 19.7845 11.4636C19.9282 11.6071 20 11.7853 20 11.9981C20 12.2109 19.9282 12.3891 19.7845 12.5326C19.641 12.6763 19.4628 12.7481 19.25 12.7481H7.873Z" fill="white"/>
</g>
</g>
</svg>
