<svg width="20" height="21" viewBox="0 0 20 21" fill="none" xmlns="http://www.w3.org/2000/svg">
    <path d="M2 6.80773H16V4.30773C16 4.23073 15.9679 4.16023 15.9038 4.09623C15.8398 4.03207 15.7693 3.99998 15.6923 3.99998H2.30775C2.23075 3.99998 2.16025 4.03207 2.09625 4.09623C2.03208 4.16023 2 4.23073 2 4.30773V6.80773ZM2.30775 19.5C1.80258 19.5 1.375 19.325 1.025 18.975C0.675 18.625 0.5 18.1974 0.5 17.6922V4.30773C0.5 3.80257 0.675 3.37498 1.025 3.02498C1.375 2.67498 1.80258 2.49998 2.30775 2.49998H3.69225V1.15374C3.69225 0.934569 3.76567 0.751568 3.9125 0.604735C4.05933 0.458068 4.24233 0.384735 4.4615 0.384735C4.68083 0.384735 4.86383 0.458068 5.0105 0.604735C5.15733 0.751568 5.23075 0.934569 5.23075 1.15374V2.49998H12.8078V1.13474C12.8078 0.921902 12.8795 0.743651 13.023 0.599985C13.1667 0.456485 13.3449 0.384735 13.5578 0.384735C13.7706 0.384735 13.9488 0.456485 14.0923 0.599985C14.2359 0.743651 14.3078 0.921902 14.3078 1.13474V2.49998H15.6923C16.1974 2.49998 16.625 2.67498 16.975 3.02498C17.325 3.37498 17.5 3.80257 17.5 4.30773V9.02123C17.5 9.23407 17.4282 9.41224 17.2845 9.55574C17.141 9.6994 16.9628 9.77124 16.75 9.77124C16.5372 9.77124 16.359 9.6994 16.2155 9.55574C16.0718 9.41224 16 9.23407 16 9.02123V8.30773H2V17.6922C2 17.7692 2.03208 17.8397 2.09625 17.9037C2.16025 17.9679 2.23075 18 2.30775 18H8.425C8.63783 18 8.81608 18.0718 8.95975 18.2155C9.10325 18.359 9.175 18.5372 9.175 18.75C9.175 18.9628 9.10325 19.141 8.95975 19.2845C8.81608 19.4282 8.63783 19.5 8.425 19.5H2.30775ZM15.1923 20.5C13.9436 20.5 12.8814 20.0622 12.0058 19.1865C11.1301 18.3108 10.6923 17.2487 10.6923 16C10.6923 14.7513 11.1301 13.6892 12.0058 12.8135C12.8814 11.9378 13.9436 11.5 15.1923 11.5C16.4411 11.5 17.5033 11.9378 18.3788 12.8135C19.2544 13.6892 19.6923 14.7513 19.6923 16C19.6923 17.2487 19.2544 18.3108 18.3788 19.1865C17.5033 20.0622 16.4411 20.5 15.1923 20.5ZM15.6348 15.8192V13.5C15.6348 13.3795 15.5911 13.2757 15.5038 13.1885C15.4166 13.1013 15.3128 13.0577 15.1923 13.0577C15.0718 13.0577 14.9679 13.1013 14.8808 13.1885C14.7936 13.2757 14.75 13.3795 14.75 13.5V15.8037C14.75 15.9242 14.7718 16.039 14.8155 16.148C14.859 16.257 14.9276 16.3583 15.0213 16.452L16.5463 17.977C16.6334 18.0642 16.7357 18.1093 16.853 18.1125C16.9702 18.1157 17.0756 18.0705 17.1693 17.977C17.2629 17.8833 17.3098 17.7795 17.3098 17.6655C17.3098 17.5513 17.2629 17.4474 17.1693 17.3537L15.6348 15.8192Z"
          fill="currentColor"/>
</svg>
