<svg width="14" height="14" viewBox="0 0 14 14" fill="none" xmlns="http://www.w3.org/2000/svg">
<path d="M7.00002 7.70283L9.04869 9.75166C9.14102 9.84388 9.25708 9.8911 9.39685 9.89333C9.53652 9.89544 9.65469 9.84821 9.75135 9.75166C9.84791 9.65499 9.89619 9.53788 9.89619 9.40033C9.89619 9.26277 9.84791 9.14566 9.75135 9.04899L7.70252 7.00033L9.75135 4.95166C9.84358 4.85933 9.8908 4.74327 9.89302 4.60349C9.89513 4.46383 9.84791 4.34566 9.75135 4.24899C9.65469 4.15244 9.53758 4.10416 9.40002 4.10416C9.26247 4.10416 9.14535 4.15244 9.04869 4.24899L7.00002 6.29783L4.95135 4.24899C4.85902 4.15677 4.74297 4.10955 4.60319 4.10733C4.46352 4.10521 4.34535 4.15244 4.24869 4.24899C4.15213 4.34566 4.10385 4.46277 4.10385 4.60033C4.10385 4.73788 4.15213 4.85499 4.24869 4.95166L6.29752 7.00033L4.24869 9.04899C4.15647 9.14133 4.10924 9.25738 4.10702 9.39716C4.10491 9.53683 4.15213 9.65499 4.24869 9.75166C4.34535 9.84821 4.46247 9.89649 4.60002 9.89649C4.73758 9.89649 4.85469 9.84821 4.95135 9.75166L7.00002 7.70283ZM7.00119 13.3337C6.12519 13.3337 5.3018 13.1674 4.53102 12.835C3.76024 12.5025 3.0898 12.0514 2.51969 11.4815C1.94958 10.9116 1.49819 10.2414 1.16552 9.47099C0.832965 8.70055 0.666687 7.87738 0.666687 7.00149C0.666687 6.12549 0.832909 5.3021 1.16535 4.53133C1.4978 3.76055 1.94896 3.0901 2.51885 2.51999C3.08874 1.94988 3.75891 1.49849 4.52935 1.16583C5.2998 0.83327 6.12296 0.666992 6.99885 0.666992C7.87485 0.666992 8.69824 0.833214 9.46902 1.16566C10.2398 1.4981 10.9102 1.94927 11.4804 2.51916C12.0505 3.08905 12.5019 3.75921 12.8345 4.52966C13.1671 5.3001 13.3334 6.12327 13.3334 6.99916C13.3334 7.87516 13.1671 8.69855 12.8347 9.46933C12.5022 10.2401 12.0511 10.9105 11.4812 11.4807C10.9113 12.0508 10.2411 12.5022 9.47069 12.8348C8.70024 13.1674 7.87708 13.3337 7.00119 13.3337Z" fill="currentColor" fill-opacity="0.4"/>
</svg>
