<svg width="10" height="8" viewBox="0 0 10 8" fill="none" xmlns="http://www.w3.org/2000/svg">
<path d="M3.36659 6.34358L9.12557 0.584616C9.22472 0.485471 9.34074 0.434826 9.47364 0.432682C9.60654 0.430549 9.7247 0.481193 9.82812 0.584616C9.93153 0.688027 9.98324 0.806826 9.98324 0.941015C9.98324 1.07519 9.93153 1.19399 9.82812 1.29742L3.78837 7.3474C3.66786 7.46791 3.52727 7.52817 3.36659 7.52817C3.20591 7.52817 3.06532 7.46791 2.94481 7.3474L0.161473 4.56408C0.0623283 4.46494 0.013395 4.3472 0.0146728 4.21088C0.0159617 4.07456 0.0683118 3.95469 0.171723 3.85128C0.275145 3.74786 0.393945 3.69615 0.528123 3.69615C0.662312 3.69615 0.781112 3.74786 0.884523 3.85128L3.36659 6.34358Z" fill="#252525"/>
</svg>
