<svg width="10" height="20" viewBox="0 0 10 20" fill="none" xmlns="http://www.w3.org/2000/svg">
<path d="M7.83086 9.99998L0.298161 2.46728C0.0994443 2.26856 0.00264435 2.03203 0.00776102 1.75768C0.0128944 1.48331 0.114819 1.24678 0.313536 1.04808C0.512252 0.849359 0.748786 0.75 1.02314 0.75C1.29749 0.75 1.53402 0.849359 1.73274 1.04808L9.38851 8.71923C9.56928 8.89999 9.70325 9.10255 9.79044 9.3269C9.8776 9.55127 9.92119 9.77563 9.92119 9.99998C9.92119 10.2243 9.8776 10.4487 9.79044 10.6731C9.70325 10.8974 9.56928 11.1 9.38851 11.2807L1.71736 18.9519C1.51864 19.1506 1.28467 19.2474 1.01544 19.2423C0.746219 19.2371 0.512252 19.1352 0.313536 18.9365C0.114819 18.7378 0.0154606 18.5013 0.0154606 18.2269C0.0154606 17.9526 0.114819 17.716 0.313536 17.5173L7.83086 9.99998Z" fill="#606060"/>
</svg>
