<svg width="54" height="38" viewBox="0 0 54 38" fill="none" xmlns="http://www.w3.org/2000/svg">
<path d="M25.6666 17.8827L20.9586 22.5753C20.7177 22.8247 20.4166 22.9493 20.0553 22.9493C19.6935 22.9493 19.3828 22.8193 19.1233 22.5593C18.8393 22.31 18.7059 21.9955 18.7233 21.616C18.7401 21.2364 18.8735 20.922 19.1233 20.6727L25.4919 14.3033C25.923 13.8727 26.4257 13.6573 26.9999 13.6573C27.5741 13.6573 28.0768 13.8727 28.5079 14.3033L34.8766 20.6727C35.1264 20.922 35.2624 21.232 35.2846 21.6027C35.3068 21.9733 35.1708 22.2935 34.8766 22.5633C34.6273 22.8104 34.3155 22.928 33.9413 22.916C33.5666 22.904 33.2495 22.7733 32.9899 22.524L28.3333 17.8827V33.3593C28.3333 33.77 28.5041 34.1462 28.8459 34.488C29.1877 34.8298 29.5639 35.0007 29.9746 35.0007H44.3333C46.1999 35.0007 47.7777 34.3562 49.0666 33.0673C50.3555 31.7784 50.9999 30.2007 50.9999 28.334C50.9999 26.4673 50.3555 24.8895 49.0666 23.6007C47.7777 22.3118 46.1999 21.6673 44.3333 21.6673H40.3333V16.334C40.3333 12.6451 39.0333 9.50065 36.4333 6.90065C33.8333 4.30065 30.6888 3.00065 26.9999 3.00065C23.311 3.00065 20.1666 4.30065 17.5666 6.90065C14.9666 9.50065 13.6666 12.6451 13.6666 16.334H12.2306C9.75547 16.334 7.59814 17.2451 5.75859 19.0673C3.91947 20.8895 2.99992 23.0895 2.99992 25.6673C2.99992 28.2451 3.91103 30.4451 5.73325 32.2673C7.55547 34.0895 9.75547 35.0007 12.3333 35.0007H17.6666C18.0444 35.0007 18.361 35.1287 18.6166 35.3847C18.8721 35.6407 18.9999 35.9578 18.9999 36.336C18.9999 36.7142 18.8721 37.0307 18.6166 37.2853C18.361 37.54 18.0444 37.6673 17.6666 37.6673H12.3333C9.00659 37.6673 6.17503 36.5104 3.83859 34.1967C1.5017 31.8833 0.333252 29.0555 0.333252 25.7133C0.333252 22.5547 1.42036 19.8162 3.59459 17.498C5.76925 15.1802 8.32325 13.934 11.2566 13.7593C11.8548 9.87576 13.641 6.66732 16.6153 4.13398C19.5895 1.60065 23.051 0.333984 26.9999 0.333984C31.4573 0.333984 35.2381 1.88643 38.3426 4.99132C41.4475 8.09576 42.9999 11.8767 42.9999 16.334V19.0007H44.6413C47.195 19.0829 49.3377 20.0204 51.0693 21.8133C52.8008 23.6067 53.6666 25.7802 53.6666 28.334C53.6666 30.9495 52.7819 33.1589 51.0126 34.962C49.2433 36.7655 47.051 37.6673 44.4359 37.6673H29.9746C28.747 37.6673 27.7221 37.2562 26.8999 36.434C26.0777 35.6118 25.6666 34.5869 25.6666 33.3593V17.8827Z" fill="#6E51D9"/>
</svg>
