<svg width="24" height="24" viewBox="0 0 24 24" fill="none" xmlns="http://www.w3.org/2000/svg">
<mask id="mask0_804_2421" style="mask-type:alpha" maskUnits="userSpaceOnUse" x="0" y="0" width="24" height="24">
<rect width="24" height="24" fill="#D9D9D9"/>
</mask>
<g mask="url(#mask0_804_2421)">
<path d="M12.3461 18.5H11.4999C9.27238 18.5 7.38221 17.7237 5.82938 16.171C4.27638 14.6185 3.49988 12.7288 3.49988 10.502C3.49988 8.275 4.27621 6.38458 5.82888 4.83075C7.38171 3.27692 9.27171 2.5 11.4989 2.5C12.6124 2.5 13.6528 2.708 14.6201 3.124C15.5875 3.54 16.4345 4.1115 17.1614 4.8385C17.8884 5.56533 18.4599 6.41183 18.8759 7.378C19.2919 8.344 19.4999 9.38467 19.4999 10.5C19.4999 12.573 18.9396 14.4878 17.8191 16.2443C16.6986 18.0006 15.2794 19.414 13.5614 20.4845C13.4332 20.5518 13.305 20.5888 13.1769 20.5955C13.0487 20.6023 12.9307 20.5737 12.8229 20.5095C12.7152 20.4455 12.6242 20.3628 12.5499 20.2615C12.4755 20.1602 12.4332 20.0371 12.4229 19.8923L12.3461 18.5ZM13.9999 18.35C15.1832 17.35 16.1457 16.1792 16.8874 14.8375C17.629 13.4958 17.9999 12.05 17.9999 10.5C17.9999 8.68333 17.3707 7.14583 16.1124 5.8875C14.854 4.62917 13.3165 4 11.4999 4C9.68321 4 8.14571 4.62917 6.88738 5.8875C5.62904 7.14583 4.99988 8.68333 4.99988 10.5C4.99988 12.3167 5.62904 13.8542 6.88738 15.1125C8.14571 16.3708 9.68321 17 11.4999 17H13.9999V18.35ZM11.5051 15.773C11.7491 15.773 11.9567 15.6869 12.1279 15.5147C12.2989 15.3426 12.3844 15.1346 12.3844 14.8907C12.3844 14.6469 12.2984 14.4394 12.1264 14.2683C11.9542 14.0971 11.7461 14.0115 11.5021 14.0115C11.2583 14.0115 11.0508 14.0976 10.8796 14.2698C10.7085 14.4419 10.6229 14.6499 10.6229 14.8938C10.6229 15.1376 10.709 15.3451 10.8811 15.5163C11.0533 15.6874 11.2613 15.773 11.5051 15.773ZM9.37938 8.2885C9.52888 8.3525 9.67829 8.35308 9.82763 8.29025C9.97696 8.22742 10.0991 8.12617 10.1941 7.9865C10.3376 7.77367 10.5222 7.60667 10.7479 7.4855C10.9735 7.36433 11.2306 7.30375 11.5191 7.30375C11.9646 7.30375 12.3266 7.42433 12.6051 7.6655C12.8836 7.9065 13.0229 8.22375 13.0229 8.61725C13.0229 8.86092 12.9588 9.09583 12.8306 9.322C12.7025 9.54833 12.48 9.81983 12.1634 10.1365C11.7402 10.5288 11.4319 10.8811 11.2384 11.1932C11.0447 11.5054 10.9479 11.8153 10.9479 12.123C10.9479 12.2885 11.0048 12.4299 11.1186 12.5473C11.2323 12.6644 11.3695 12.723 11.5301 12.723C11.6908 12.723 11.825 12.6624 11.9326 12.5413C12.0403 12.4201 12.1146 12.2756 12.1556 12.1077C12.2133 11.8629 12.344 11.619 12.5479 11.376C12.7517 11.133 12.9678 10.8974 13.1961 10.6693C13.5588 10.3064 13.8245 9.95425 13.9931 9.61275C14.1618 9.27142 14.2461 8.93 14.2461 8.5885C14.2461 7.86233 13.9964 7.27825 13.4969 6.83625C12.9975 6.39408 12.3447 6.173 11.5384 6.173C11.0265 6.173 10.5546 6.29742 10.1226 6.54625C9.69079 6.79492 9.35213 7.11467 9.10663 7.5055C9.02013 7.66467 9.00313 7.81892 9.05563 7.96825C9.10829 8.11758 9.21621 8.22433 9.37938 8.2885Z" fill="currentColor"/>
</g>
</svg>
