<svg viewBox="0 0 24 25" fill="none" xmlns="http://www.w3.org/2000/svg">
    <path d="M22.0003 6.21048V15.7905C22.0003 18.5505 19.7603 20.7905 17.0003 20.7905H7.00031C6.54031 20.7905 6.10031 20.7305 5.67031 20.6105C5.05031 20.4405 4.85031 19.6505 5.31031 19.1905L15.9403 8.56048C16.1603 8.34048 16.4903 8.29048 16.8003 8.35048C17.1203 8.41048 17.4703 8.32048 17.7203 8.08048L20.2903 5.50048C21.2303 4.56048 22.0003 4.87048 22.0003 6.21048Z"
          fill="#6E51D9"/>
    <path d="M14.64 7.85953L4.17 18.3295C3.69 18.8095 2.89 18.6895 2.57 18.0895C2.2 17.4095 2 16.6195 2 15.7895V6.20953C2 4.86953 2.77 4.55953 3.71 5.49953L6.29 8.08953C6.68 8.46953 7.32 8.46953 7.71 8.08953L11.29 4.49953C11.68 4.10953 12.32 4.10953 12.71 4.49953L14.65 6.43953C15.03 6.82953 15.03 7.46953 14.64 7.85953Z"
          fill="#6E51D9"/>
</svg>
