<svg viewBox="0 0 48 48" fill="none" xmlns="http://www.w3.org/2000/svg">
    <rect width="48" height="48" rx="6" fill="#6E51D9" fill-opacity="0.16"/>
    <g clip-path="url(#clip0_432_120093)">
        <path d="M36.7695 23.0651C36.6702 22.4283 36.2869 22.0309 35.6603 21.9153C35.4656 21.8788 35.2649 21.8301 35.0621 21.7794C34.8167 21.7186 34.5632 21.6577 34.3036 21.6151C34.0522 21.5726 33.9792 21.5016 33.9305 21.2501C33.8758 20.9723 33.7744 20.7148 33.675 20.4593C33.6162 20.3092 33.5553 20.153 33.5107 20.003C33.4316 19.7414 33.2796 19.5143 33.1457 19.3135C32.9713 19.0499 32.8334 18.841 32.874 18.6524C32.9409 18.3543 33.1559 18.0582 33.383 17.7459C33.4905 17.5979 33.602 17.4438 33.7014 17.2836C34.113 16.6205 34.0846 16.075 33.6081 15.5173C33.2694 15.1198 32.9044 14.7548 32.5191 14.4283C31.9412 13.9396 31.3997 13.9132 30.7123 14.3432L30.3979 14.5378C30.0714 14.7386 29.7348 14.9475 29.4063 15.1584C29.3617 15.1868 29.3414 15.1949 29.3434 15.1969C29.3394 15.1969 29.3252 15.1908 29.2988 15.1726C28.4775 14.6595 27.5589 14.2762 26.5673 14.0288C26.5091 14.0153 26.4733 13.9768 26.4598 13.9132C26.3543 13.4266 26.2387 12.9196 26.1049 12.3639C25.9325 11.6461 25.5067 11.275 24.803 11.2263C24.3041 11.1939 23.7891 11.1918 23.276 11.2243C22.5439 11.2689 22.1181 11.64 21.9376 12.3903C21.9194 12.4653 21.9011 12.5404 21.8808 12.6154L21.8727 12.6458C21.7997 12.9338 21.7247 13.2298 21.6841 13.5361C21.6233 13.9964 21.4752 14.0917 21.163 14.1323C20.879 14.1688 20.6154 14.2783 20.3782 14.3776C20.2605 14.4263 20.1409 14.477 20.0273 14.5135C19.7739 14.5946 19.5589 14.7386 19.35 14.8785C19.1026 15.0428 18.8674 15.1989 18.6788 15.1584C18.3848 15.0955 18.0907 14.8826 17.7804 14.6555C17.6466 14.5581 17.4783 14.4364 17.312 14.333C16.6489 13.9234 16.1054 13.9497 15.5477 14.4182C15.1543 14.7487 14.7771 15.1279 14.4263 15.5457C13.964 16.0932 13.9335 16.7117 14.3391 17.2917C14.4973 17.5127 14.6433 17.7541 14.7873 17.9933C14.9049 18.186 15.0245 18.3847 15.1543 18.5774C15.2253 18.6828 15.2233 18.6869 15.1746 18.768C14.6595 19.6075 14.2823 20.512 14.0572 21.461C14.0437 21.5192 14.0086 21.5536 13.9518 21.5645C13.6496 21.6192 13.3515 21.6922 13.0575 21.7652C12.8284 21.822 12.5911 21.8788 12.3599 21.9254C11.7779 22.041 11.4007 22.4182 11.2953 22.984C11.1675 23.6775 11.1675 24.367 11.2973 25.0342C11.4088 25.5999 11.788 25.9731 12.368 26.0866C12.6093 26.1333 12.8567 26.1941 13.1021 26.2549C13.3799 26.3239 13.6679 26.3949 13.9619 26.4476C14.0167 26.4577 14.0289 26.4658 14.0289 26.4658C14.0289 26.4658 14.0431 26.4821 14.0613 26.5571C14.2905 27.5122 14.6676 28.4167 15.1787 29.244C15.2172 29.3069 15.2172 29.3252 15.2172 29.3252C15.2172 29.3252 15.2172 29.3414 15.1807 29.3921C14.9678 29.7064 14.769 30.0288 14.5764 30.3411C14.5034 30.4608 14.4304 30.5784 14.3553 30.698C13.9295 31.3754 13.9599 31.935 14.4547 32.5089C14.769 32.876 15.1239 33.2288 15.5092 33.5594C16.0851 34.0542 16.6428 34.0887 17.3161 33.6709L17.6527 33.462C17.9589 33.2734 18.2752 33.0788 18.5815 32.8719C18.6889 32.7989 18.7072 32.7989 18.8207 32.8658C19.1107 33.0362 19.4129 33.1822 19.713 33.3262L19.7394 33.3383C19.8651 33.3992 19.9908 33.46 20.1145 33.5209C20.3498 33.6405 20.6033 33.6952 20.8507 33.75C21.1467 33.8149 21.4266 33.8757 21.5361 34.0319C21.7085 34.2793 21.7652 34.6463 21.8261 35.0377C21.8565 35.2263 21.8869 35.423 21.9315 35.6136C22.11 36.3558 22.546 36.7391 23.2679 36.7817C23.5214 36.7959 23.7749 36.804 24.0202 36.804C24.2818 36.804 24.5434 36.7959 24.7949 36.7797C25.5107 36.733 25.9244 36.37 26.0968 35.642L26.1799 35.2912C26.2692 34.9181 26.3624 34.5307 26.4415 34.1414C26.4699 34.0035 26.4861 33.9913 26.6078 33.9589C26.9526 33.8676 27.2851 33.7439 27.6116 33.6243C27.782 33.5614 27.9523 33.4985 28.1247 33.4397C28.3579 33.3606 28.5566 33.2268 28.7493 33.0991C28.9723 32.951 29.1853 32.8091 29.3414 32.8395C29.6071 32.8902 29.8808 33.0889 30.1708 33.2998C30.3148 33.4032 30.4628 33.5127 30.619 33.6081C30.6534 33.6283 30.6859 33.6506 30.7204 33.6729C30.9191 33.8027 31.1888 33.9812 31.6248 33.9629L31.7485 33.9406C31.8479 33.9203 32.0121 33.8859 32.1662 33.7946C32.8334 33.3972 33.387 32.8476 33.8109 32.1601C34.0725 31.7343 34.0502 31.2375 33.748 30.7974C33.6588 30.6676 33.5736 30.5236 33.4884 30.3776C33.3627 30.1647 33.2309 29.9437 33.0707 29.7388C32.8213 29.4184 32.8091 29.2339 33.02 28.95C33.1863 28.729 33.2897 28.4836 33.3931 28.2382C33.4458 28.1125 33.4965 27.9949 33.5533 27.8854C33.675 27.6501 33.7277 27.3966 33.7784 27.1492C33.8393 26.8572 33.896 26.5814 34.0623 26.478C34.3564 26.2914 34.7863 26.2286 35.2 26.1657C35.35 26.1434 35.5021 26.1211 35.6461 26.0927C36.2747 25.9751 36.66 25.5797 36.7614 24.949C36.8608 24.3285 36.8628 23.6958 36.7655 23.0691L36.7695 23.0651ZM31.6694 28.8121C31.4362 29.1528 31.4362 29.4752 31.6694 29.826C31.8296 30.0633 31.9837 30.3188 32.1257 30.55C32.292 30.8217 32.4643 31.1036 32.6509 31.3754C32.7462 31.5132 32.7523 31.5741 32.6022 31.7525C32.582 31.7728 32.5617 31.7951 32.5515 31.8053C32.1176 32.292 31.8296 32.6144 31.6532 32.6408C31.4747 32.6671 31.1341 32.4542 30.5683 32.1013L30.3006 31.933C30.1242 31.8215 29.9477 31.712 29.7733 31.6045C29.7145 31.566 29.6496 31.5335 29.5807 31.497C29.5564 31.4849 29.532 31.4707 29.5057 31.4565L29.3252 31.3571L29.0758 31.5112C28.9926 31.5619 28.9176 31.6086 28.8385 31.6572C27.9178 32.2311 27.0053 32.6103 26.0481 32.8131C25.6162 32.9064 25.387 33.1335 25.3059 33.5553C25.2552 33.8291 25.1863 34.1029 25.1214 34.3685C25.0484 34.6666 24.9713 34.9769 24.9145 35.2932C24.8841 35.4696 24.8334 35.5345 24.6022 35.5609H24.5495C23.8641 35.6197 23.4869 35.6501 23.3186 35.5325C23.1564 35.419 23.0854 35.0783 22.9657 34.4375C22.7812 33.4519 22.4162 32.7604 21.236 32.588C20.5161 32.4846 19.8266 32.0587 19.2385 31.6653C19.0458 31.5396 18.8755 31.4808 18.7011 31.4808C18.5267 31.4808 18.3462 31.5437 18.1515 31.6775C17.9082 31.8458 17.6507 32.004 17.3951 32.1581C17.1498 32.3082 16.8963 32.4623 16.6529 32.6286C16.511 32.7259 16.4502 32.7239 16.3204 32.6164C16.3041 32.6022 16.2879 32.588 16.2636 32.5657L16.2048 32.513C15.6958 32.0527 15.4139 31.7992 15.3875 31.5964C15.3612 31.3977 15.566 31.1016 15.9391 30.5642C16.4015 29.895 16.728 29.1366 16.002 28.1267C15.5883 27.5528 15.3815 26.8471 15.1989 25.965C15.1199 25.5878 14.9029 25.3728 14.5176 25.2917C14.2823 25.243 14.0491 25.1862 13.8159 25.1315L13.7754 25.1214C13.4327 25.0402 13.0798 24.9551 12.7249 24.8902C12.5242 24.8537 12.4897 24.7949 12.4856 24.6306C12.4775 24.1987 12.4775 23.7728 12.4856 23.3612C12.4897 23.2111 12.512 23.1482 12.731 23.1077C13.0818 23.0448 13.4286 22.9617 13.7794 22.8785C14.0228 22.8197 14.2742 22.7609 14.5216 22.7102C14.8988 22.6311 15.1057 22.4222 15.1949 22.0309C15.4362 20.9601 15.8398 19.9949 16.3974 19.1594C16.6124 18.8349 16.6104 18.5287 16.3934 18.1961C16.2413 17.967 16.0932 17.7216 15.9635 17.5046C15.7911 17.2228 15.5964 16.9023 15.3896 16.6022C15.3105 16.4887 15.2902 16.442 15.4423 16.2534C15.4585 16.2352 15.4768 16.2169 15.493 16.1966C15.929 15.7018 16.219 15.3753 16.4015 15.347C16.5962 15.3186 16.9855 15.5842 17.4823 15.9229C18.2631 16.4522 18.9688 16.6651 19.8732 15.9898C20.4775 15.5396 21.2643 15.3368 22.0268 15.1847C22.4324 15.1016 22.6575 14.8765 22.7366 14.4709C22.7893 14.2053 22.8562 13.9335 22.9232 13.6598C23.0022 13.3434 23.0834 13.0169 23.1422 12.6864C23.1685 12.5363 23.201 12.4795 23.4463 12.441C23.4585 12.441 23.4707 12.441 23.4849 12.439H23.5234C24.2068 12.3903 24.584 12.3639 24.7483 12.4836C24.9064 12.6012 24.9733 12.952 25.093 13.5888C25.2755 14.5561 25.6405 15.2375 26.8349 15.4179C27.5427 15.5254 28.2119 15.9269 28.8284 16.3447C29.1853 16.588 29.5077 16.586 29.8747 16.3366C30.1262 16.1662 30.3918 16.004 30.6514 15.8458C30.8907 15.6998 31.1624 15.5335 31.418 15.3632C31.5498 15.276 31.6025 15.278 31.7242 15.3753C31.7647 15.4078 31.8033 15.4423 31.8499 15.4869L31.8681 15.5031C32.367 15.9553 32.6408 16.2048 32.6671 16.4035C32.6935 16.5961 32.4948 16.8861 32.1338 17.4073C31.6572 18.0947 31.3186 18.8714 32.0628 19.8914C32.5029 20.4978 32.6996 21.2927 32.8638 22.0552C32.9409 22.4162 33.1477 22.621 33.5128 22.7001C33.7216 22.7447 33.9285 22.7954 34.1374 22.844L34.1617 22.8501C34.5145 22.9353 34.9161 23.0326 35.3095 23.0996C35.5143 23.1361 35.5751 23.1827 35.5771 23.4301V23.4788C35.5771 23.6653 35.5771 23.8337 35.5771 23.9999C35.5792 24.3954 35.5812 24.7685 35.5366 24.8395C35.494 24.878 35.2344 24.9206 35.0276 24.9551L35.0033 24.9591C34.8309 24.9875 34.62 25.022 34.3706 25.0747C33.4641 25.2593 32.8233 25.6101 32.6387 26.7193C32.5069 27.5122 32.0547 28.2524 31.6755 28.8081L31.6694 28.8121Z"
              fill="#6E51D9"/>
        <path d="M24.0791 16.5779H24.0447C22.0512 16.5779 20.1795 17.3485 18.7681 18.7497C17.3749 20.1328 16.6023 21.966 16.5962 23.9087C16.582 28.1084 19.8327 31.4078 23.996 31.422H24.0183C28.1045 31.422 31.4363 28.1267 31.4525 24.0669C31.4687 19.9563 28.1592 16.5961 24.0791 16.5799V16.5779ZM30.5095 23.9857C30.5177 27.5589 27.6259 30.4709 24.0629 30.479H24.0487C20.4715 30.479 17.5534 27.5812 17.5433 24.0121C17.5392 22.2985 18.2064 20.6742 19.4231 19.4392C20.6378 18.2063 22.2419 17.5229 23.9372 17.5208H23.9534C27.6218 17.5208 30.4994 20.3579 30.5095 23.9878V23.9857Z"
              fill="#6E51D9"/>
        <path d="M22.2218 21.5197C22.1123 21.5157 22.0008 21.5157 21.8852 21.5197H21.8304V21.3332C21.8304 21.2176 21.8304 21.1507 21.8325 21.0979C21.8345 20.9884 21.8345 20.9519 21.8203 20.7086C21.8122 20.5768 21.6621 20.4267 21.5445 20.3963C21.4431 20.372 21.3721 20.4024 21.3316 20.4328C21.2586 20.4875 21.216 20.5829 21.2099 20.7025C21.2079 20.7532 21.2099 20.8059 21.2099 20.8566V21.5157H21.1694C21.072 21.5157 20.9828 21.5157 20.8936 21.5157C20.5488 21.5258 20.346 21.7246 20.3379 22.0592C20.3278 22.4424 20.3298 22.7933 20.3379 23.1319C20.3481 23.4523 20.5488 23.649 20.8794 23.6612C20.9726 23.6632 21.068 23.6632 21.1673 23.6612H21.2079V27.5121C21.2079 27.5284 21.2079 27.5446 21.2038 27.5608C21.1977 27.6176 21.1917 27.6886 21.2302 27.7494C21.3052 27.869 21.3985 27.9907 21.5141 27.9948H21.5181C21.6378 27.9948 21.7412 27.863 21.8061 27.7514C21.8446 27.6865 21.8386 27.6115 21.8325 27.5507C21.8325 27.5324 21.8284 27.5121 21.8284 27.4939V23.6612H22.0555C22.1123 23.6612 22.1691 23.6612 22.2239 23.6612C22.5544 23.647 22.747 23.4503 22.7511 23.1218C22.7572 22.7608 22.7572 22.3998 22.7511 22.051C22.745 21.7286 22.5463 21.5279 22.2178 21.5177L22.2218 21.5197ZM22.1225 22.1524V23.0265H20.9706V22.1524H22.1225Z"
              fill="#6E51D9"/>
        <path d="M24.6857 23.6511C24.5802 23.6511 24.4748 23.6511 24.3632 23.6511H24.3105V20.8566C24.3105 20.8404 24.3105 20.8222 24.3126 20.8039C24.3166 20.7411 24.3227 20.6701 24.2882 20.6052C24.2842 20.5971 24.1807 20.3983 24.0327 20.3943H24.0286C23.9151 20.3943 23.7934 20.4795 23.7346 20.5606C23.6839 20.6315 23.6859 20.7248 23.688 20.8019V20.8445C23.688 21.6921 23.688 22.2336 23.688 22.9738V23.6511H23.6575C23.5703 23.6511 23.4973 23.6511 23.4223 23.6511C23.0208 23.6551 22.8221 23.8457 22.818 24.2392C22.8139 24.5413 22.8119 24.8942 22.82 25.2409C22.8281 25.5918 23.0309 25.7905 23.3878 25.7966C23.475 25.7966 23.5643 25.7966 23.6555 25.7966H23.688V26.6381V27.5852C23.688 27.7089 23.688 28.0009 23.9982 28.0049H24.0063C24.0956 28.0049 24.1686 27.9786 24.2193 27.9279C24.3105 27.8386 24.3105 27.6987 24.3105 27.5892V25.7945H24.5376C24.5944 25.7945 24.6492 25.7945 24.7039 25.7945C25.0324 25.7783 25.2292 25.5776 25.2332 25.2572C25.2373 24.9002 25.2373 24.5433 25.2332 24.1885C25.2292 23.8478 25.0345 23.6572 24.6837 23.6511H24.6857ZM24.6025 24.2878V25.1578H23.4608V24.2878H24.6025Z"
              fill="#6E51D9"/>
        <path d="M27.1576 21.5199C27.0583 21.5179 26.9589 21.5199 26.8514 21.5199H26.7926V21.1002C26.7926 21.019 26.7926 20.9663 26.7926 20.7554C26.7926 20.6682 26.7825 20.5425 26.6993 20.4614C26.6446 20.4087 26.5716 20.3843 26.4763 20.3884C26.3607 20.3924 26.168 20.4492 26.17 20.7676C26.17 20.8649 26.17 20.9623 26.17 21.0596V21.5199H26.1295C26.0342 21.5199 25.951 21.5199 25.8679 21.5199C25.509 21.528 25.3163 21.7227 25.3102 22.0796C25.3041 22.4163 25.3041 22.761 25.3102 23.1037C25.3163 23.4708 25.511 23.6614 25.8882 23.6654C25.9693 23.6654 26.0504 23.6654 26.1396 23.6654H26.1721V27.5184V27.5732C26.17 27.6867 26.166 27.8266 26.2572 27.9199C26.31 27.9747 26.387 28.0051 26.4844 28.0071H26.4925C26.5898 28.0071 26.6649 27.9808 26.7176 27.926C26.8068 27.8348 26.8007 27.6989 26.7946 27.5914C26.7946 27.5671 26.7946 27.5448 26.7946 27.5245C26.7967 26.2652 26.7967 25.813 26.7946 24.9836V23.6675H26.8616C26.9711 23.6675 27.0704 23.6675 27.1698 23.6675C27.5226 23.6593 27.7133 23.4728 27.7173 23.126C27.7214 22.8056 27.7234 22.4649 27.7173 22.0796C27.7133 21.7247 27.5206 21.5321 27.1597 21.522L27.1576 21.5199ZM27.0867 22.1547V23.0327H25.949V22.1547H27.0867Z"
              fill="#6E51D9"/>
    </g>
    <defs>
        <clipPath id="clip0_432_120093">
            <rect width="25.6406" height="25.6" fill="white" transform="translate(11.2002 11.2)"/>
        </clipPath>
    </defs>
</svg>
