<svg viewBox="0 0 60 60" fill="none" xmlns="http://www.w3.org/2000/svg">
    <rect width="60" height="60" rx="6" fill="#6E51D9" fill-opacity="0.16"/>
    <path d="M42.7774 34.6166C42.5049 34.6166 42.2293 34.4866 41.9785 34.2388C40.7153 32.9941 39.5572 31.8423 38.4395 30.7184C38.0122 30.288 38.0153 29.7121 38.4426 29.2817C39.712 28.0091 40.8701 26.8573 41.9847 25.7612C42.2324 25.5166 42.5049 25.3897 42.7774 25.3897C43.0096 25.3897 43.2325 25.4888 43.4214 25.6746C43.8301 26.0802 43.7929 26.6685 43.3254 27.1422C43.0715 27.3992 42.8145 27.6531 42.5482 27.9163L41.4676 28.9845H42.4677C42.7433 28.9845 43.0127 28.9938 43.279 29C43.5452 29.0092 43.8084 29.0154 44.0685 29.0154C44.4586 29.0154 44.7776 28.9969 45.0748 28.9597C46.3226 28.7987 47.2329 27.7212 47.2391 26.3929C47.2484 24.2657 47.2484 22.1107 47.2391 19.9836C47.2329 18.4819 46.0842 17.327 44.567 17.2929C44.2822 17.2867 44.0004 17.2836 43.7155 17.2836C43.4988 17.2836 42.638 17.2867 42.4244 17.2867H21.9178L21.8837 17.6614C21.8713 17.8038 21.862 17.9432 21.8527 18.0825C21.8342 18.3581 21.8187 18.6181 21.7691 18.8627C21.41 20.5874 20.0755 21.7516 18.3663 21.8228C17.713 21.8507 17.0442 21.863 16.3785 21.863C15.6385 21.863 14.883 21.8445 14.1337 21.8104C12.4277 21.733 10.9229 20.2251 10.8486 18.5222C10.7835 17.0669 10.7835 15.5993 10.8486 14.1626C10.926 12.4194 12.4091 10.9332 14.1585 10.8527C14.914 10.8186 15.6633 10.8 16.3909 10.8C17.0504 10.8 17.7099 10.8155 18.3478 10.8434C20.2613 10.9301 21.6948 12.3606 21.828 14.3236L21.8992 15.3794H35.0645C38.2103 15.3794 41.3531 15.3794 44.4989 15.3794C46.8149 15.3794 48.6665 16.909 49.1062 19.1848C49.1495 19.4046 49.1712 19.6492 49.1712 19.9124C49.1712 20.5471 49.1712 21.1819 49.1774 21.8135C49.1836 23.4421 49.1929 25.1234 49.1371 26.7737C49.0628 28.9659 47.0193 30.9165 44.7652 30.9506C44.4927 30.9537 44.2171 30.9568 43.9385 30.9568C43.9385 30.9568 42.6845 30.9537 42.3996 30.9537H41.3964L42.5482 32.0869C42.83 32.3625 43.087 32.6133 43.3378 32.8672C43.5793 33.1118 43.7124 33.4029 43.7093 33.6877C43.7093 33.9292 43.6072 34.1522 43.4245 34.3317C43.2356 34.5175 43.0158 34.6135 42.7836 34.6135L42.7774 34.6166ZM16.329 12.7445C15.7283 12.7445 15.1276 12.7445 14.5269 12.7507C13.4835 12.7569 12.7466 13.4845 12.7404 14.5187C12.7311 15.7262 12.7311 16.9493 12.7404 18.1506C12.7497 19.1786 13.4835 19.9031 14.5269 19.9186C14.7561 19.9186 14.9852 19.9217 15.2143 19.9217H16.3228H17.4003C17.6263 19.9217 17.8524 19.9217 18.0753 19.9217C19.1621 19.9124 19.899 19.1848 19.9052 18.1104C19.9114 16.9462 19.9114 15.7541 19.9052 14.5651C19.899 13.5062 19.1652 12.7631 18.1155 12.7569C17.5211 12.7538 16.9235 12.7507 16.329 12.7507V12.7445Z"
          fill="#6E51D9"/>
    <path d="M29.9927 48.2896C29.7419 48.2896 29.5004 48.1843 29.3115 47.9955C28.9369 47.6208 28.9369 47.0418 29.3115 46.6486C29.5809 46.3668 29.8719 46.0913 30.1568 45.825C30.2899 45.7011 30.42 45.5773 30.5531 45.4503L30.7513 45.2584L30.5005 44.6267H21.6266C19.5892 44.6267 17.555 44.6267 15.5176 44.6267C13.1613 44.6267 11.3438 43.1405 10.8856 40.8462C10.8391 40.6201 10.8175 40.3755 10.8175 40.1216C10.8175 39.4869 10.8175 38.8522 10.8113 38.2205C10.802 36.5795 10.7958 34.8827 10.8515 33.2169C10.9258 31.0217 12.9539 29.0772 15.1925 29.0587C16.3629 29.0494 17.5333 29.0463 18.7037 29.0463C19.4808 29.0463 20.258 29.0463 21.0352 29.0463C21.8123 29.0463 24.4008 29.0463 24.4008 29.0463L24.4349 28.6747C24.4504 28.5261 24.4596 28.3775 24.4689 28.235C24.4875 27.9564 24.503 27.6932 24.5556 27.4517C24.9179 25.7363 26.2617 24.5814 27.977 24.5102C28.6303 24.4824 29.296 24.47 29.9524 24.47C30.6863 24.47 31.4324 24.4885 32.1663 24.5195C33.9126 24.6 35.3957 26.0862 35.4731 27.8325C35.535 29.2723 35.535 30.7399 35.4731 32.1921C35.3988 33.8919 33.8909 35.3967 32.1818 35.4772C31.4108 35.5144 30.6491 35.533 29.9153 35.533C29.2651 35.533 28.6179 35.5175 27.9956 35.4896C26.0357 35.3998 24.6299 33.991 24.4968 31.9846C24.4875 31.8546 24.4597 31.3406 24.4597 31.3406L24.438 30.9536H17.7593C17.0534 30.9536 16.3443 30.9536 15.6384 30.9536C13.8611 30.9536 12.7526 32.0589 12.7526 33.8331V34.0313C12.7526 36.0005 12.7495 37.9728 12.7526 39.9421C12.7557 41.5428 13.9075 42.707 15.4897 42.7101C17.6757 42.7132 19.8648 42.7163 22.0538 42.7163H30.0144C30.0639 42.7163 30.1165 42.7101 30.1939 42.707L31.2498 42.6451L30.6089 41.998C30.4633 41.8494 30.3209 41.7069 30.1816 41.5707C29.8812 41.2704 29.5964 40.9886 29.3239 40.6975C29.0545 40.4127 28.9833 40.0938 29.101 39.7253C29.2186 39.36 29.4601 39.1525 29.8627 39.0782C29.9246 39.0658 29.9865 39.0596 30.0453 39.0596C30.2775 39.0596 30.4881 39.1525 30.6708 39.3352C31.8102 40.4622 33.1014 41.741 34.3492 43.0167C34.7331 43.4099 34.73 43.9363 34.3492 44.3295C33.1788 45.5277 31.9433 46.7662 30.6708 48.0079C30.485 48.1905 30.2559 48.2896 30.0113 48.2896H29.9927ZM29.9927 26.4144C29.3889 26.4144 28.7821 26.4144 28.1783 26.4206C27.1503 26.4299 26.4258 27.1637 26.4134 28.2072C26.4072 28.619 26.4103 29.0308 26.4134 29.4426V30.003V30.5418C26.4134 30.9443 26.4134 31.3499 26.4134 31.7524C26.4227 32.8392 27.1503 33.5761 28.2247 33.5823C28.8161 33.5854 29.4075 33.5885 29.9958 33.5885C30.5841 33.5885 31.1786 33.5885 31.7669 33.5823C32.8413 33.5761 33.5689 32.8578 33.5751 31.7927C33.5844 30.613 33.5844 29.4054 33.5751 28.2041C33.5689 27.1606 32.8413 26.4268 31.8071 26.4175C31.2034 26.4144 30.5965 26.4113 29.9927 26.4113V26.4144Z"
          fill="#6E51D9"/>
    <path d="M43.6689 49.1999C42.9351 49.1999 42.1857 49.1845 41.4488 49.1504C39.7768 49.0761 38.2814 47.5806 38.1761 45.8838C38.1451 45.3822 38.1544 44.8652 38.1606 44.3605C38.1606 44.2583 38.1637 44.1592 38.1637 44.057H38.2039V43.6452C38.2039 43.3728 38.1916 43.1003 38.1823 42.8247C38.1575 42.2395 38.1358 41.6853 38.2225 41.1558C38.495 39.4807 39.879 38.2608 41.5882 38.1896C42.2663 38.1617 42.9536 38.1462 43.6317 38.1462C44.3593 38.1462 45.0962 38.1617 45.8208 38.1958C47.5702 38.2763 49.0564 39.7594 49.1338 41.5026C49.1957 42.9424 49.1957 44.41 49.1338 45.8622C49.0595 47.5713 47.5547 49.0761 45.8518 49.1504C45.1303 49.1814 44.3965 49.1999 43.6689 49.1999ZM44.7835 47.2617C45.0188 47.2617 45.2542 47.2617 45.4864 47.2555C46.4927 47.24 47.2296 46.5031 47.2389 45.503C47.2482 44.2304 47.2482 42.995 47.2389 41.8277C47.2296 40.8493 46.4865 40.1031 45.5081 40.0938C44.8981 40.0876 44.2912 40.0845 43.6813 40.0845C43.0713 40.0845 42.449 40.0845 41.8328 40.0907C40.8234 40.1 40.0865 40.8369 40.0772 41.8432C40.0679 42.9733 40.0679 44.1623 40.0772 45.4751C40.0834 46.5093 40.8141 47.24 41.8483 47.2555C42.0867 47.2586 42.3251 47.2586 42.5635 47.2586H43.6875H44.7804L44.7835 47.2617Z"
          fill="#6E51D9"/>
</svg>
