<svg width="24" height="24" viewBox="0 0 24 24" fill="none" xmlns="http://www.w3.org/2000/svg">
<mask id="mask0_804_2362" style="mask-type:alpha" maskUnits="userSpaceOnUse" x="0" y="0" width="24" height="24">
<rect width="24" height="24" fill="#D9D9D9"/>
</mask>
<g mask="url(#mask0_804_2362)">
<path
        d="M13.25 8.09138V4.4086C13.25 4.14775 13.3369 3.93111 13.5107 3.75868C13.6845 3.58623 13.8999 3.5 14.1568 3.5H19.5973C19.8542 3.5 20.0689 3.58623 20.2413 3.75868C20.4138 3.93111 20.5 4.14775 20.5 4.4086V8.09138C20.5 8.35224 20.4131 8.56889 20.2393 8.74133C20.0655 8.91376 19.8501 8.99998 19.5932 8.99998H14.1527C13.8958 8.99998 13.6811 8.91376 13.5087 8.74133C13.3362 8.56889 13.25 8.35224 13.25 8.09138ZM3.50003 11.5999V4.39983C3.50003 4.14483 3.58693 3.93111 3.76073 3.75868C3.93453 3.58623 4.14988 3.5 4.4068 3.5H9.8473C10.1042 3.5 10.3189 3.58626 10.4913 3.75878C10.6638 3.93128 10.75 4.14503 10.75 4.40003V11.6001C10.75 11.8551 10.6631 12.0688 10.4893 12.2413C10.3155 12.4137 10.1001 12.5 9.84323 12.5H4.4027C4.1458 12.5 3.93114 12.4137 3.7587 12.2412C3.58625 12.0687 3.50003 11.8549 3.50003 11.5999ZM13.25 19.5999V12.3998C13.25 12.1448 13.3369 11.9311 13.5107 11.7587C13.6845 11.5862 13.8999 11.5 14.1568 11.5H19.5973C19.8542 11.5 20.0689 11.5863 20.2413 11.7588C20.4138 11.9313 20.5 12.145 20.5 12.4V19.6001C20.5 19.8551 20.4131 20.0688 20.2393 20.2413C20.0655 20.4137 19.8501 20.5 19.5932 20.5H14.1527C13.8958 20.5 13.6811 20.4137 13.5087 20.2412C13.3362 20.0687 13.25 19.8549 13.25 19.5999ZM3.50003 19.5914V15.9086C3.50003 15.6477 3.58693 15.4311 3.76073 15.2586C3.93453 15.0862 4.14988 15 4.4068 15H9.8473C10.1042 15 10.3189 15.0862 10.4913 15.2586C10.6638 15.4311 10.75 15.6477 10.75 15.9086V19.5914C10.75 19.8522 10.6631 20.0688 10.4893 20.2413C10.3155 20.4137 10.1001 20.5 9.84323 20.5H4.4027C4.1458 20.5 3.93114 20.4137 3.7587 20.2413C3.58625 20.0688 3.50003 19.8522 3.50003 19.5914ZM5 11H9.25003V4.99998H5V11ZM14.75 19H19V13H14.75V19ZM14.75 7.5H19V4.99998H14.75V7.5ZM5 19H9.25003V16.5H5V19Z" fill="CurrentColor"/>
</g>
</svg>
