<svg width="16" height="18" viewBox="0 0 16 18" fill="none" xmlns="http://www.w3.org/2000/svg">
<path d="M3.3077 17.5003C2.81058 17.5003 2.38502 17.3233 2.03102 16.9692C1.67701 16.6152 1.5 16.1897 1.5 15.6926V3.0003H1.25C1.0375 3.0003 0.859375 2.92839 0.715625 2.78457C0.571875 2.64077 0.5 2.46257 0.5 2.24997C0.5 2.03739 0.571875 1.85931 0.715625 1.71572C0.859375 1.57212 1.0375 1.50032 1.25 1.50032H4.99997C4.99997 1.25546 5.08619 1.04681 5.25863 0.874373C5.43106 0.70194 5.63971 0.615723 5.88457 0.615723H10.1154C10.3602 0.615723 10.5689 0.70194 10.7413 0.874373C10.9138 1.04681 11 1.25546 11 1.50032H14.75C14.9625 1.50032 15.1406 1.57223 15.2843 1.71605C15.4281 1.85986 15.5 2.03806 15.5 2.25065C15.5 2.46325 15.4281 2.64134 15.2843 2.78492C15.1406 2.92851 14.9625 3.0003 14.75 3.0003H14.5V15.6926C14.5 16.1897 14.3229 16.6152 13.9689 16.9692C13.6149 17.3233 13.1894 17.5003 12.6922 17.5003H3.3077ZM13 3.0003H2.99997V15.6926C2.99997 15.7823 3.02883 15.856 3.08652 15.9137C3.14422 15.9714 3.21795 16.0003 3.3077 16.0003H12.6922C12.782 16.0003 12.8557 15.9714 12.9134 15.9137C12.9711 15.856 13 15.7823 13 15.6926V3.0003ZM6.15417 14.0003C6.36676 14.0003 6.54484 13.9284 6.68842 13.7847C6.83202 13.6409 6.90382 13.4628 6.90382 13.2503V5.75027C6.90382 5.53779 6.83192 5.35967 6.6881 5.21592C6.54428 5.07217 6.36608 5.0003 6.1535 5.0003C5.9409 5.0003 5.76281 5.07217 5.61922 5.21592C5.47564 5.35967 5.40385 5.53779 5.40385 5.75027V13.2503C5.40385 13.4628 5.47576 13.6409 5.61958 13.7847C5.76337 13.9284 5.94158 14.0003 6.15417 14.0003ZM9.84645 14.0003C10.059 14.0003 10.2371 13.9284 10.3807 13.7847C10.5243 13.6409 10.5961 13.4628 10.5961 13.2503V5.75027C10.5961 5.53779 10.5242 5.35967 10.3804 5.21592C10.2366 5.07217 10.0584 5.0003 9.84577 5.0003C9.63319 5.0003 9.45511 5.07217 9.31152 5.21592C9.16792 5.35967 9.09613 5.53779 9.09613 5.75027V13.2503C9.09613 13.4628 9.16803 13.6409 9.31185 13.7847C9.45567 13.9284 9.63387 14.0003 9.84645 14.0003Z" fill="currentColor"/>
</svg>
