<svg width="10" height="16" viewBox="0 0 10 16" fill="none" xmlns="http://www.w3.org/2000/svg">
<path d="M2.00002 15.6153C1.55585 15.6153 1.1756 15.4571 0.859265 15.1408C0.542932 14.8244 0.384766 14.4442 0.384766 14C0.384766 13.5558 0.542932 13.1756 0.859265 12.8593C1.1756 12.5429 1.55585 12.3848 2.00002 12.3848C2.44418 12.3848 2.82443 12.5429 3.14077 12.8593C3.4571 13.1756 3.61526 13.5558 3.61526 14C3.61526 14.4442 3.4571 14.8244 3.14077 15.1408C2.82443 15.4571 2.44418 15.6153 2.00002 15.6153ZM8.00002 15.6153C7.55585 15.6153 7.1756 15.4571 6.85927 15.1408C6.54293 14.8244 6.38477 14.4442 6.38477 14C6.38477 13.5558 6.54293 13.1756 6.85927 12.8593C7.1756 12.5429 7.55585 12.3848 8.00002 12.3848C8.44418 12.3848 8.82443 12.5429 9.14077 12.8593C9.4571 13.1756 9.61526 13.5558 9.61526 14C9.61526 14.4442 9.4571 14.8244 9.14077 15.1408C8.82443 15.4571 8.44418 15.6153 8.00002 15.6153ZM2.00002 9.61526C1.55585 9.61526 1.1756 9.4571 0.859265 9.14077C0.542932 8.82443 0.384766 8.44418 0.384766 8.00002C0.384766 7.55585 0.542932 7.1756 0.859265 6.85927C1.1756 6.54293 1.55585 6.38477 2.00002 6.38477C2.44418 6.38477 2.82443 6.54293 3.14077 6.85927C3.4571 7.1756 3.61526 7.55585 3.61526 8.00002C3.61526 8.44418 3.4571 8.82443 3.14077 9.14077C2.82443 9.4571 2.44418 9.61526 2.00002 9.61526ZM8.00002 9.61526C7.55585 9.61526 7.1756 9.4571 6.85927 9.14077C6.54293 8.82443 6.38477 8.44418 6.38477 8.00002C6.38477 7.55585 6.54293 7.1756 6.85927 6.85927C7.1756 6.54293 7.55585 6.38477 8.00002 6.38477C8.44418 6.38477 8.82443 6.54293 9.14077 6.85927C9.4571 7.1756 9.61526 7.55585 9.61526 8.00002C9.61526 8.44418 9.4571 8.82443 9.14077 9.14077C8.82443 9.4571 8.44418 9.61526 8.00002 9.61526ZM2.00002 3.61526C1.55585 3.61526 1.1756 3.4571 0.859265 3.14077C0.542932 2.82443 0.384766 2.44418 0.384766 2.00002C0.384766 1.55585 0.542932 1.1756 0.859265 0.859265C1.1756 0.542932 1.55585 0.384766 2.00002 0.384766C2.44418 0.384766 2.82443 0.542932 3.14077 0.859265C3.4571 1.1756 3.61526 1.55585 3.61526 2.00002C3.61526 2.44418 3.4571 2.82443 3.14077 3.14077C2.82443 3.4571 2.44418 3.61526 2.00002 3.61526ZM8.00002 3.61526C7.55585 3.61526 7.1756 3.4571 6.85927 3.14077C6.54293 2.82443 6.38477 2.44418 6.38477 2.00002C6.38477 1.55585 6.54293 1.1756 6.85927 0.859265C7.1756 0.542932 7.55585 0.384766 8.00002 0.384766C8.44418 0.384766 8.82443 0.542932 9.14077 0.859265C9.4571 1.1756 9.61526 1.55585 9.61526 2.00002C9.61526 2.44418 9.4571 2.82443 9.14077 3.14077C8.82443 3.4571 8.44418 3.61526 8.00002 3.61526Z" fill="#252525"/>
</svg>
