<svg width="20" height="20" viewBox="0 0 20 20" fill="none" xmlns="http://www.w3.org/2000/svg">
<path d="M2.3077 19.4999C1.80257 19.4999 1.375 19.3249 1.025 18.9749C0.675 18.6249 0.5 18.1974 0.5 17.6922V4.30767C0.5 3.80254 0.675 3.37497 1.025 3.02497C1.375 2.67497 1.80257 2.49997 2.3077 2.49997H9.15963C9.40963 2.49997 9.59713 2.5785 9.72213 2.73555C9.84713 2.8926 9.90963 3.06407 9.90963 3.24997C9.90963 3.43586 9.84456 3.60732 9.71443 3.76437C9.58431 3.92142 9.39425 3.99995 9.14425 3.99995H2.3077C2.23077 3.99995 2.16024 4.032 2.09612 4.0961C2.03202 4.16022 1.99997 4.23074 1.99997 4.30767V17.6922C1.99997 17.7692 2.03202 17.8397 2.09612 17.9038C2.16024 17.9679 2.23077 17.9999 2.3077 17.9999H15.6923C15.7692 17.9999 15.8397 17.9679 15.9038 17.9038C15.9679 17.8397 16 17.7692 16 17.6922V10.7922C16 10.5422 16.0785 10.3547 16.2356 10.2297C16.3926 10.1047 16.5641 10.0422 16.75 10.0422C16.9359 10.0422 17.1073 10.1047 17.2644 10.2297C17.4214 10.3547 17.5 10.5422 17.5 10.7922V17.6922C17.5 18.1974 17.325 18.6249 16.975 18.9749C16.625 19.3249 16.1974 19.4999 15.6923 19.4999H2.3077ZM6.5 12.5961V10.8153C6.5 10.5743 6.5468 10.3426 6.6404 10.1202C6.73398 9.89774 6.86283 9.70447 7.02693 9.54035L15.5596 1.00767C15.7147 0.85254 15.8853 0.739398 16.0711 0.668248C16.257 0.597098 16.4461 0.561523 16.6385 0.561523C16.8346 0.561523 17.023 0.597098 17.2038 0.668248C17.3846 0.739398 17.5493 0.849332 17.698 0.998048L18.9538 2.24997C19.0987 2.40509 19.2099 2.57624 19.2874 2.76342C19.365 2.95059 19.4038 3.14032 19.4038 3.33262C19.4038 3.52494 19.3708 3.71148 19.3048 3.89225C19.2387 4.073 19.1281 4.24094 18.973 4.39607L10.4115 12.9576C10.2474 13.1217 10.0541 13.2531 9.83168 13.3518C9.60924 13.4506 9.37752 13.4999 9.1365 13.4999H7.40385C7.14617 13.4999 6.93111 13.4137 6.75868 13.2412C6.58623 13.0688 6.5 12.8538 6.5 12.5961ZM7.99998 11.9999H9.24613L15.4789 5.76722L14.8558 5.14415L14.1885 4.50185L7.99998 10.6903V11.9999Z" fill="currentColor"/>
</svg>
