<svg viewBox="0 0 24 25" fill="none" xmlns="http://www.w3.org/2000/svg">
    <g clip-path="url(#clip0_526_94805)">
        <path d="M12 0.5C5.37432 0.5 0 5.87432 0 12.5C0 19.1257 5.37432 24.5 12 24.5C18.6257 24.5 24 19.1257 24 12.5C24 5.87432 18.6257 0.5 12 0.5ZM16.7233 6.56148H15.3201C13.9385 6.56148 13.5045 7.42224 13.5045 8.3047V10.3951H16.5931L16.1013 13.6139H13.5045V21.4042H10.0181V13.6139H7.18987V10.3951H10.0181V7.94304C10.0181 5.15099 11.6817 3.61031 14.2278 3.61031C15.4503 3.61031 16.7233 3.82731 16.7233 3.82731V6.56872V6.56148Z"
              fill="#606060"/>
    </g>
    <defs>
        <clipPath id="clip0_526_94805">
            <rect width="24" height="24" fill="white" transform="translate(0 0.5)"/>
        </clipPath>
    </defs>
</svg>
