<svg viewBox="0 0 24 25" fill="none" xmlns="http://www.w3.org/2000/svg">
    <g clip-path="url(#clip0_526_94807)">
        <path d="M12 0.5C5.37432 0.5 0 5.87432 0 12.5C0 19.1257 5.37432 24.5 12 24.5C18.6257 24.5 24 19.1257 24 12.5C24 5.87432 18.6257 0.5 12 0.5ZM19.2694 15.4005C19.2694 17.8092 17.3092 19.7694 14.9005 19.7694H9.09222C6.68354 19.7694 4.72333 17.8092 4.72333 15.4005V9.59222C4.72333 7.18354 6.68354 5.22333 9.09222 5.22333H14.9005C17.3092 5.22333 19.2694 7.18354 19.2694 9.59222V15.4005ZM14.3508 12.5C14.3508 13.7658 13.3237 14.7929 12.0579 14.7929C10.792 14.7929 9.76492 13.7658 9.76492 12.5C9.76492 11.2342 10.792 10.2071 12.0579 10.2071C13.3237 10.2071 14.3508 11.2342 14.3508 12.5ZM14.9005 6.59765H9.09222C7.4358 6.59765 6.09042 7.94304 6.09042 9.59946V15.4078C6.09042 17.0642 7.4358 18.4096 9.09222 18.4096H14.9005C16.557 18.4096 17.9023 17.0642 17.9023 15.4078V9.59946C17.9023 7.94304 16.557 6.59765 14.9005 6.59765ZM12.0579 16.0805C10.0832 16.0805 8.4774 14.4747 8.4774 12.5C8.4774 10.5253 10.0832 8.91953 12.0579 8.91953C14.0325 8.91953 15.6383 10.5253 15.6383 12.5C15.6383 14.4747 14.0325 16.0805 12.0579 16.0805ZM15.8481 9.52712C15.3779 9.52712 14.9946 9.14376 14.9946 8.6736C14.9946 8.20344 15.3779 7.82007 15.8481 7.82007C16.3183 7.82007 16.7016 8.20344 16.7016 8.6736C16.7016 9.14376 16.3183 9.52712 15.8481 9.52712Z"
              fill="#606060"/>
    </g>
    <defs>
        <clipPath id="clip0_526_94807">
            <rect width="24" height="24" fill="white" transform="translate(0 0.5)"/>
        </clipPath>
    </defs>
</svg>
