<svg viewBox="0 0 24 25" fill="none" xmlns="http://www.w3.org/2000/svg">
    <g clip-path="url(#clip0_526_94813)">
        <path fill-rule="evenodd" clip-rule="evenodd"
              d="M16.5672 23.5993C22.6955 21.0759 25.6178 14.0624 23.0944 7.93418C20.571 1.80595 13.5575 -1.11637 7.4293 1.407C1.30106 3.93038 -1.62125 10.9439 0.902119 17.0721C3.42549 23.2004 10.439 26.1227 16.5672 23.5993ZM5.96058 9.67941H8.55009V17.9977H5.96058V9.67941ZM7.25533 5.54198C8.08716 5.54198 8.75262 6.21467 8.75262 7.03927C8.75262 7.86386 8.07993 8.53655 7.25533 8.53655C6.43074 8.53655 5.75081 7.86386 5.75081 7.03927C5.75081 6.21467 6.42351 5.54198 7.25533 5.54198ZM12.6586 9.67941H10.1848V17.9977H12.7671V13.8819C12.7671 12.797 12.9986 11.7481 14.3222 11.7481C15.6459 11.7481 15.6676 12.9923 15.6676 13.9543V17.9977H18.2499V13.4335C18.2499 11.1912 17.7653 9.46965 15.1468 9.46965C13.881 9.46965 13.042 10.1568 12.6948 10.815H12.6586V9.67941Z"
              fill="#606060"/>
    </g>
    <defs>
        <clipPath id="clip0_526_94813">
            <rect width="24" height="24" fill="white" transform="translate(0 0.5)"/>
        </clipPath>
    </defs>
</svg>
