<svg viewBox="0 0 24 25" fill="none" xmlns="http://www.w3.org/2000/svg">
    <path d="M18.7998 10.4102C17.6698 10.4102 16.6598 10.9602 16.0298 11.8002C15.3998 10.9602 14.3898 10.4102 13.2598 10.4102C11.3498 10.4102 9.7998 11.9702 9.7998 13.8902C9.7998 14.6302 9.9198 15.3202 10.1198 15.9502C11.0998 19.0602 14.1398 20.9302 15.6398 21.4402C15.8498 21.5102 16.1998 21.5102 16.4098 21.4402C17.9098 20.9302 20.9498 19.0702 21.9298 15.9502C22.1398 15.3102 22.2498 14.6302 22.2498 13.8902C22.2598 11.9702 20.7098 10.4102 18.7998 10.4102Z"
          fill="#6E51D9"/>
    <path d="M20.75 8.8401C20.75 9.0701 20.52 9.2201 20.3 9.1601C18.95 8.8101 17.47 9.1001 16.35 9.9001C16.13 10.0601 15.83 10.0601 15.62 9.9001C14.83 9.3201 13.87 9.0001 12.86 9.0001C10.28 9.0001 8.18 11.1101 8.18 13.7101C8.18 16.5301 9.53 18.6401 10.89 20.0501C10.96 20.1201 10.9 20.2401 10.81 20.2001C8.08 19.2701 2 15.4101 2 8.8401C2 5.9401 4.33 3.6001 7.21 3.6001C8.92 3.6001 10.43 4.4201 11.38 5.6901C12.34 4.4201 13.85 3.6001 15.55 3.6001C18.42 3.6001 20.75 5.9401 20.75 8.8401Z"
          fill="#6E51D9"/>
</svg>
