<svg width="32" height="32" viewBox="0 0 32 32" fill="none" xmlns="http://www.w3.org/2000/svg">
<mask id="mask0_892_2653" style="mask-type:alpha" maskUnits="userSpaceOnUse" x="0" y="0" width="32" height="32">
<rect width="32" height="32" fill="#D9D9D9"/>
</mask>
<g mask="url(#mask0_892_2653)">
<path d="M5.66667 23.5131C5.38333 23.5131 5.14589 23.4172 4.95433 23.2255C4.76256 23.0339 4.66667 22.7963 4.66667 22.5128C4.66667 22.2295 4.76256 21.992 4.95433 21.8005C5.14589 21.6091 5.38333 21.5135 5.66667 21.5135H26.3333C26.6167 21.5135 26.8541 21.6092 27.0457 21.8008C27.2374 21.9926 27.3333 22.2302 27.3333 22.5138C27.3333 22.7971 27.2374 23.0346 27.0457 23.2261C26.8541 23.4175 26.6167 23.5131 26.3333 23.5131H5.66667ZM5.66667 17.0005C5.38333 17.0005 5.14589 16.9046 4.95433 16.7128C4.76256 16.521 4.66667 16.2835 4.66667 16.0001C4.66667 15.7166 4.76256 15.4791 4.95433 15.2878C5.14589 15.0962 5.38333 15.0005 5.66667 15.0005H26.3333C26.6167 15.0005 26.8541 15.0963 27.0457 15.2881C27.2374 15.4799 27.3333 15.7175 27.3333 16.0008C27.3333 16.2843 27.2374 16.5218 27.0457 16.7131C26.8541 16.9047 26.6167 17.0005 26.3333 17.0005H5.66667ZM5.66667 10.4875C5.38333 10.4875 5.14589 10.3917 4.95433 10.2001C4.76256 10.0083 4.66667 9.77068 4.66667 9.48713C4.66667 9.20379 4.76256 8.96635 4.95433 8.77479C5.14589 8.58346 5.38333 8.48779 5.66667 8.48779H26.3333C26.6167 8.48779 26.8541 8.58368 27.0457 8.77546C27.2374 8.96702 27.3333 9.20457 27.3333 9.48813C27.3333 9.77146 27.2374 10.0089 27.0457 10.2005C26.8541 10.3918 26.6167 10.4875 26.3333 10.4875H5.66667Z" fill="#0A0A0A"/>
</g>
</svg>
