<svg width="16" height="16" viewBox="0 0 16 16" fill="none" xmlns="http://www.w3.org/2000/svg">
<path d="M7.25 7.1L5.327 9.023C5.17817 9.17167 5.00158 9.24508 4.79725 9.24325C4.59275 9.24125 4.41292 9.16275 4.25775 9.00775C4.11292 8.85258 4.03792 8.67692 4.03275 8.48075C4.02758 8.28458 4.10258 8.10892 4.25775 7.95375L7.36725 4.84425C7.46092 4.75058 7.55967 4.68458 7.6635 4.64625C7.76733 4.60775 7.8795 4.5885 8 4.5885C8.1205 4.5885 8.23267 4.60775 8.3365 4.64625C8.44033 4.68458 8.53908 4.75058 8.63275 4.84425L11.7423 7.95375C11.8909 8.10258 11.9643 8.27667 11.9625 8.476C11.9605 8.67533 11.8871 8.85258 11.7423 9.00775C11.5871 9.16275 11.4089 9.24283 11.2078 9.248C11.0064 9.25317 10.8282 9.17817 10.673 9.023L8.75 7.1V14.75C8.75 14.9628 8.67817 15.141 8.5345 15.2845C8.391 15.4282 8.21283 15.5 8 15.5C7.78717 15.5 7.609 15.4282 7.4655 15.2845C7.32183 15.141 7.25 14.9628 7.25 14.75V7.1ZM0.5 4.26925V2.30775C0.5 1.80258 0.675 1.375 1.025 1.025C1.375 0.675 1.80258 0.5 2.30775 0.5H13.6923C14.1974 0.5 14.625 0.675 14.975 1.025C15.325 1.375 15.5 1.80258 15.5 2.30775V4.26925C15.5 4.48208 15.4282 4.66025 15.2845 4.80375C15.141 4.94742 14.9628 5.01925 14.75 5.01925C14.5372 5.01925 14.359 4.94742 14.2155 4.80375C14.0718 4.66025 14 4.48208 14 4.26925V2.30775C14 2.23075 13.9679 2.16025 13.9038 2.09625C13.8398 2.03208 13.7692 2 13.6923 2H2.30775C2.23075 2 2.16025 2.03208 2.09625 2.09625C2.03208 2.16025 2 2.23075 2 2.30775V4.26925C2 4.48208 1.92817 4.66025 1.7845 4.80375C1.641 4.94742 1.46283 5.01925 1.25 5.01925C1.03717 5.01925 0.859 4.94742 0.7155 4.80375C0.571833 4.66025 0.5 4.48208 0.5 4.26925Z" fill="currentColor"/>
</svg>
