<svg width="19" height="20" viewBox="0 0 19 20" fill="none" xmlns="http://www.w3.org/2000/svg">
<path d="M12.5 6H8.5C6.9087 6 5.38258 6.63214 4.25736 7.75736C3.13214 8.88258 2.5 10.4087 2.5 12C2.5 13.5913 3.13214 15.1174 4.25736 16.2426C5.38258 17.3679 6.9087 18 8.5 18H11.5C12.0523 18 12.5 18.4477 12.5 19C12.5 19.5523 12.0523 20 11.5 20H8.5C6.37827 20 4.34344 19.1571 2.84315 17.6569C1.34285 16.1566 0.5 14.1217 0.5 12C0.5 9.87827 1.34285 7.84344 2.84315 6.34315C4.34344 4.84285 6.37827 4 8.5 4H12.5V1.38778C12.5 0.836683 13.1428 0.535631 13.5661 0.888433L17.9008 4.50066C18.2126 4.76052 18.2126 5.23948 17.9008 5.49934L13.5661 9.11157C13.1428 9.46437 12.5 9.16332 12.5 8.61222V6Z" fill="#606060"/>
</svg>
