<svg width="16" height="22" viewBox="0 0 16 22" fill="none" xmlns="http://www.w3.org/2000/svg">
<path d="M1.75 11.0495C1.75 11.3419 1.76983 11.6332 1.8095 11.9235C1.84933 12.214 1.91733 12.5003 2.0135 12.7823C2.0775 12.9951 2.07075 13.1986 1.99325 13.3928C1.91575 13.5869 1.784 13.7264 1.598 13.811C1.40183 13.9059 1.20667 13.9135 1.0125 13.834C0.818333 13.7545 0.689167 13.6084 0.625 13.3958C0.491667 13.0188 0.395833 12.6319 0.3375 12.235C0.279167 11.8384 0.25 11.4432 0.25 11.0495C0.25 8.88669 1.00258 7.04602 2.50775 5.52752C4.01292 4.00886 5.84367 3.24952 8 3.24952H8.78075L7.45775 1.92652C7.31925 1.78802 7.24842 1.61394 7.24525 1.40427C7.24208 1.19477 7.31292 1.01752 7.45775 0.872524C7.60258 0.72769 7.77817 0.655273 7.9845 0.655273C8.191 0.655273 8.36667 0.72769 8.5115 0.872524L11.0057 3.36677C11.1866 3.54761 11.277 3.75852 11.277 3.99952C11.277 4.24052 11.1866 4.45144 11.0057 4.63227L8.5115 7.12652C8.373 7.26486 8.199 7.33569 7.9895 7.33902C7.77983 7.34219 7.60258 7.27136 7.45775 7.12652C7.31292 6.98152 7.2405 6.80586 7.2405 6.59952C7.2405 6.39319 7.31292 6.21752 7.45775 6.07252L8.78075 4.74952H8C6.26283 4.74952 4.78683 5.36102 3.572 6.58402C2.35733 7.80719 1.75 9.29569 1.75 11.0495ZM14.25 10.9495C14.25 10.6572 14.2302 10.3659 14.1905 10.0755C14.1507 9.78502 14.0827 9.49877 13.9865 9.21677C13.9225 9.00394 13.9293 8.80044 14.0068 8.60627C14.0843 8.41211 14.216 8.27269 14.402 8.18802C14.5982 8.09319 14.7917 8.08552 14.9827 8.16502C15.1737 8.24452 15.3012 8.39061 15.3652 8.60327C15.4986 8.98028 15.5961 9.36719 15.6578 9.76402C15.7192 10.1607 15.75 10.5559 15.75 10.9495C15.75 13.1124 14.9974 14.953 13.4923 16.4715C11.9871 17.9902 10.1563 18.7495 8 18.7495H7.21925L8.54225 20.0725C8.68075 20.211 8.75158 20.3851 8.75475 20.5948C8.75792 20.8043 8.68708 20.9815 8.54225 21.1265C8.39742 21.2714 8.22183 21.3438 8.0155 21.3438C7.809 21.3438 7.63333 21.2714 7.4885 21.1265L4.99425 18.6323C4.81342 18.4514 4.723 18.2405 4.723 17.9995C4.723 17.7585 4.81342 17.5476 4.99425 17.3668L7.4885 14.8725C7.627 14.7342 7.801 14.6634 8.0105 14.66C8.22017 14.6569 8.39742 14.7277 8.54225 14.8725C8.68708 15.0175 8.7595 15.1932 8.7595 15.3995C8.7595 15.6059 8.68708 15.7815 8.54225 15.9265L7.21925 17.2495H8C9.73717 17.2495 11.2132 16.638 12.428 15.415C13.6427 14.1919 14.25 12.7034 14.25 10.9495Z" fill="#6E51D9"/>
</svg>
