<svg viewBox="0 0 48 48" fill="none" xmlns="http://www.w3.org/2000/svg">
    <rect width="48" height="48" rx="6" fill="#6E51D9" fill-opacity="0.16"/>
    <g clip-path="url(#clip0_432_120079)">
        <path d="M29.8462 36.8C29.5468 36.7406 29.2431 36.696 28.948 36.6217C26.3022 35.9613 24.4123 33.7996 24.1087 31.0923C23.7328 27.7351 26.1981 24.5882 29.551 24.1465C32.9209 23.7028 35.9489 25.8389 36.6709 29.1706C36.7154 29.3787 36.7537 29.5889 36.794 29.7991V31.0498C36.777 31.105 36.7537 31.1602 36.7473 31.2154C36.4267 33.7742 34.643 35.8572 32.1565 36.5558C31.7912 36.6578 31.4154 36.7193 31.0459 36.7979H29.8462V36.8ZM30.4471 25.3442C27.5677 25.3569 25.3275 27.629 25.3424 30.5253C25.3551 33.2815 27.6782 35.5557 30.4705 35.5472C33.2521 35.5366 35.5603 33.2157 35.5476 30.4404C35.5348 27.6183 33.2458 25.3314 30.4492 25.342L30.4471 25.3442Z"
              fill="#6E51D9"/>
        <path d="M12.5337 21.2862C12.8777 21.2862 13.1856 21.282 13.4914 21.2862C13.9479 21.2926 14.2452 21.5559 14.2409 21.9445C14.2367 22.331 13.9309 22.5943 13.4829 22.5964C13.1771 22.5964 12.8713 22.5964 12.5634 22.5964C12.6611 27.0067 16.4981 31.2408 21.3544 31.4872C21.3544 31.1304 21.348 30.7758 21.3544 30.4191C21.3671 29.9371 21.7515 29.6355 22.191 29.7502C22.4883 29.8288 22.6667 30.0793 22.6752 30.4552C22.6815 30.8055 22.6752 31.1559 22.6752 31.5042C22.6752 31.7038 22.6773 31.9034 22.6752 32.103C22.6667 32.585 22.4034 32.8525 21.9277 32.8419C18.5048 32.7591 15.7018 31.3895 13.5402 28.7373C12.332 27.2531 11.5803 25.5479 11.317 23.656C10.8477 20.2521 11.7565 17.2432 14.0732 14.6909C15.6296 12.9752 17.5705 11.8837 19.8383 11.4229C25.6713 10.2402 31.1943 13.8946 32.53 19.4962C32.7062 20.2351 32.7614 21.0059 32.8315 21.7661C32.8803 22.297 32.5661 22.5943 32.0395 22.5964C31.532 22.5964 31.0223 22.6006 30.5148 22.5964C30.088 22.5921 29.795 22.3182 29.7993 21.9318C29.8035 21.5559 30.0817 21.2969 30.5064 21.2862C30.8143 21.2799 31.1221 21.282 31.43 21.2777C31.4449 21.2777 31.4598 21.265 31.4746 21.2586C31.1965 16.5871 27.1365 12.7522 22.6773 12.5632C22.6773 12.869 22.6837 13.1748 22.6773 13.4805C22.6688 13.7587 22.5563 13.9838 22.2887 14.1006C22.0594 14.2004 21.8322 14.1813 21.6262 14.0305C21.4287 13.8861 21.3565 13.6801 21.3544 13.4423C21.3544 13.1535 21.3544 12.8626 21.3544 12.5356C18.9931 12.7352 16.9823 13.6355 15.3196 15.2854C13.6634 16.9311 12.7545 18.9314 12.5337 21.2841V21.2862Z"
              fill="#6E51D9"/>
        <path d="M22.6796 20.146C22.6796 20.7214 22.6732 21.2947 22.6817 21.8702C22.6881 22.229 22.5543 22.4796 22.2315 22.6622C20.7133 23.5264 19.2057 24.4055 17.6917 25.274C17.2075 25.5522 16.717 25.3505 16.6321 24.8515C16.5832 24.5648 16.7128 24.327 17.0292 24.1422C18.2034 23.4627 19.3777 22.7854 20.5519 22.108C20.76 21.987 20.966 21.8596 21.1805 21.7513C21.3206 21.6812 21.3588 21.5856 21.3567 21.4349C21.3503 20.4029 21.3524 19.3688 21.3546 18.3368C21.3546 17.9036 21.5988 17.617 21.9704 17.5978C22.3802 17.5766 22.6605 17.8463 22.6775 18.2943C22.6902 18.6511 22.6796 19.0099 22.6796 19.3688C22.6796 19.6278 22.6796 19.8848 22.6796 20.1438V20.146Z"
              fill="#6E51D9"/>
        <path d="M31.0965 33.3175C30.9903 33.9588 30.8035 34.1966 30.4255 34.186C30.0518 34.1753 29.8628 33.929 29.7779 33.3196C29.6292 33.3196 29.4721 33.3281 29.3171 33.3196C28.9264 33.2963 28.6843 33.0478 28.6885 32.6868C28.6907 32.3365 28.9497 32.071 29.3319 32.0625C29.8479 32.0519 30.3639 32.0625 30.8799 32.0583C31.2112 32.0583 31.4299 31.8693 31.4426 31.5826C31.4532 31.3045 31.2388 31.0836 30.9118 31.0709C30.555 31.056 30.1962 31.0751 29.8373 31.0582C28.9986 31.0178 28.2893 30.3702 28.2002 29.5781C28.0961 28.6651 28.5951 27.8836 29.4445 27.6352C29.5549 27.6034 29.6696 27.5821 29.7779 27.5566C29.8777 26.9239 30.0433 26.7094 30.4297 26.7051C30.8183 26.7009 30.9818 26.9047 31.0986 27.5588C31.2239 27.5588 31.3556 27.5588 31.4872 27.5588C31.9034 27.5651 32.1837 27.8114 32.1901 28.1767C32.1986 28.5546 31.9246 28.8095 31.4872 28.8158C30.9967 28.8222 30.5041 28.818 30.0136 28.8158C29.7566 28.8158 29.5549 28.9071 29.4636 29.1619C29.3489 29.4805 29.5846 29.7947 29.9477 29.8075C30.3788 29.8223 30.8183 29.7905 31.243 29.8542C32.1285 29.9837 32.7082 30.7248 32.6933 31.6357C32.6806 32.466 32.0329 33.1816 31.1857 33.3026C31.1623 33.3069 31.1368 33.3132 31.0965 33.3196V33.3175Z"
              fill="#6E51D9"/>
    </g>
    <defs>
        <clipPath id="clip0_432_120079">
            <rect width="25.5936" height="25.6" fill="white" transform="translate(11.2002 11.2)"/>
        </clipPath>
    </defs>
</svg>
