<svg viewBox="0 0 60 60" fill="none" xmlns="http://www.w3.org/2000/svg">
    <rect width="60" height="60" rx="6" fill="#6E51D9" fill-opacity="0.16"/>
    <path d="M21.406 49.2001C19.3725 49.2001 17.6991 49.191 16.1407 49.1758C13.6503 49.1486 11.2356 46.9638 10.8724 44.4069C10.8573 44.307 10.824 44.2223 10.7998 44.1557C10.7998 44.1557 10.7998 44.1527 10.7998 44.1496V18.943C10.827 18.8946 10.8513 18.8401 10.8634 18.7705C11.3626 15.8383 13.6987 13.8654 16.6733 13.8624H18.8278V12.7125C18.8278 12.4522 18.8278 12.192 18.8278 11.9318C18.8338 11.4204 19.082 11.0905 19.6781 10.8H20.2803C20.943 11.0936 21.2062 11.5868 21.1306 12.3857C21.1064 12.6459 21.1124 12.9031 21.1185 13.1482C21.1185 13.2541 21.1245 13.357 21.1245 13.4599V13.8382H28.7622V12.7276C28.7622 12.4613 28.7622 12.195 28.7622 11.9287C28.7743 11.4204 29.0224 11.0905 29.6185 10.8H30.2207C30.8834 11.0936 31.1467 11.5868 31.074 12.3857C31.0498 12.6459 31.0559 12.9031 31.0619 13.1482C31.0619 13.2541 31.068 13.357 31.068 13.4599V13.8382H38.7813V12.7095C38.7813 12.4492 38.7813 12.189 38.7813 11.9287C38.7903 11.4204 39.0385 11.0905 39.6346 10.8H40.2307C40.8269 11.0905 41.075 11.4204 41.081 11.9287C41.0841 12.189 41.0841 12.4492 41.081 12.7095V13.8593H43.3505C46.1647 13.8654 48.4645 15.7113 49.0697 18.4528C49.1393 18.7615 49.1726 19.0641 49.1756 19.3546C49.1847 22.0023 49.1847 24.8437 49.1816 28.2964C49.1816 28.9016 48.7671 29.3888 48.1952 29.4584C48.1437 29.4644 48.0923 29.4675 48.0378 29.4675C47.4931 29.4675 47.0423 29.1104 46.9121 28.5809C46.8819 28.4598 46.8819 28.3115 46.8819 28.1542C46.8819 26.6745 46.8819 21.146 46.8819 19.8448C46.8819 18.9128 46.6489 18.1593 46.1768 17.539C45.5323 16.6947 44.6699 16.2378 43.6138 16.1803C43.3687 16.1682 43.1085 16.1621 42.7907 16.1621C42.5759 16.1621 42.358 16.1621 42.1371 16.1682C41.9132 16.1682 41.6862 16.1742 41.4563 16.1742H41.078V17.0185C41.078 17.3483 41.078 17.6751 41.078 18.0019C41.072 18.7161 40.5999 19.2154 39.9251 19.2154C39.2533 19.2123 38.7843 18.7191 38.7782 18.014C38.7782 17.6842 38.7782 17.3544 38.7782 17.0185V16.1773H31.065V17.0306C31.065 17.3816 31.071 17.7357 31.065 18.0897C31.0559 18.6465 30.6686 19.1064 30.1239 19.2063C30.0573 19.2184 29.9877 19.2244 29.9211 19.2244C29.4491 19.2244 29.0285 18.9461 28.8741 18.5315C28.8015 18.3348 28.7894 18.0806 28.7773 17.8325V17.7478C28.7591 17.4875 28.7622 17.2243 28.7652 16.9428C28.7652 16.8157 28.7652 16.6887 28.7652 16.5585V16.1803H21.1276V17.2303C21.1276 19.058 20.5587 19.2093 19.9777 19.2093C19.3664 19.2093 18.8248 19.052 18.8248 17.2122V16.0835L18.4253 16.1077C18.1469 16.1228 17.8686 16.1288 17.5932 16.1349C16.9789 16.147 16.3404 16.1621 15.7261 16.2922C14.1103 16.6342 13.1026 17.9747 13.0996 19.7873C13.0965 21.6483 13.0996 23.5123 13.0996 25.3733V31.9337C13.0996 35.695 13.0996 39.4563 13.0996 43.2176C13.0996 44.773 13.7744 45.9108 15.0483 46.5009C15.5476 46.7339 16.1649 46.864 16.7852 46.867C18.501 46.8791 20.3257 46.8852 22.7102 46.8852C23.739 46.8852 28.1782 46.8821 28.1782 46.8821C28.6744 46.8821 29.0103 47.0697 29.2342 47.4722C29.4551 47.8686 29.4461 48.2529 29.2009 48.6463C28.9831 48.9973 28.6744 49.1789 28.2871 49.1789C27.3157 49.1789 26.3444 49.1819 25.373 49.1849C24.0477 49.1879 22.7253 49.191 21.3999 49.191L21.406 49.2001Z"
          fill="#6E51D9"/>
    <path d="M40.3156 49.1911C35.4256 49.1911 31.4464 45.215 31.4434 40.3249C31.4403 35.4319 35.4165 31.4466 40.3096 31.4436C45.2056 31.4436 49.1879 35.4198 49.1909 40.3098C49.1939 45.2028 45.2177 49.1881 40.3247 49.1911H40.3186H40.3156ZM40.3096 33.7494C36.7056 33.7555 33.7613 36.6937 33.7431 40.3007C33.7341 42.0346 34.4179 43.6838 35.6646 44.9366C36.9174 46.1954 38.5666 46.8883 40.3065 46.8883C43.9166 46.8853 46.8639 43.944 46.879 40.337C46.8881 38.6031 46.2042 36.954 44.9575 35.7012C43.7047 34.4424 42.0556 33.7524 40.3156 33.7524H40.3065L40.3096 33.7494Z"
          fill="#6E51D9"/>
    <path d="M19.9776 27.6306C19.6629 27.6306 19.3724 27.5126 19.1575 27.2947C18.9397 27.0768 18.8247 26.7803 18.8277 26.4595C18.8337 25.8271 19.3421 25.3308 19.9836 25.3308C20.6312 25.3338 21.1305 25.8422 21.1275 26.4867C21.1275 27.1283 20.6221 27.6306 19.9806 27.6306H19.9776Z"
          fill="#6E51D9"/>
    <path d="M26.635 27.6306C26.3172 27.6306 26.0237 27.5126 25.8089 27.2947C25.594 27.0798 25.476 26.7893 25.4791 26.4777C25.4791 25.8362 25.9814 25.3308 26.6229 25.3308C27.2674 25.3308 27.7728 25.8301 27.7788 26.4656C27.7818 27.1101 27.2886 27.6215 26.6501 27.6306H26.635Z"
          fill="#6E51D9"/>
    <path d="M33.2616 27.6307C32.6231 27.6246 32.1269 27.1162 32.1299 26.4687C32.1329 25.8302 32.6443 25.3279 33.2919 25.3279C33.9485 25.34 34.4387 25.8574 34.4297 26.505C34.4206 27.1344 33.9122 27.6276 33.2737 27.6276H33.2616V27.6307Z"
          fill="#6E51D9"/>
    <path d="M39.9402 27.6306C39.6255 27.6306 39.332 27.5126 39.1141 27.2977C38.8993 27.0829 38.7812 26.7924 38.7812 26.4777C38.7812 25.8362 39.2836 25.3308 39.9251 25.3308C40.5696 25.3308 41.078 25.8301 41.081 26.4656C41.0871 27.1101 40.5908 27.6215 39.9523 27.6306H39.9372H39.9402Z"
          fill="#6E51D9"/>
    <path d="M19.9807 34.2818C19.663 34.2818 19.3694 34.1638 19.1546 33.9459C18.9398 33.7311 18.8217 33.4375 18.8248 33.1228C18.8248 32.4813 19.3331 31.979 19.9746 31.979C20.6162 31.979 21.1215 32.4813 21.1245 33.1198C21.1245 33.7643 20.6283 34.2727 19.9928 34.2788H19.9837L19.9807 34.2818Z"
          fill="#6E51D9"/>
    <path d="M26.626 34.2819C25.9844 34.2819 25.4791 33.7796 25.4761 33.1381C25.4761 32.4936 25.9723 31.9852 26.6108 31.9822C27.2614 31.9822 27.7698 32.4784 27.7758 33.1109C27.7789 33.4316 27.6609 33.7282 27.446 33.9461C27.2312 34.1639 26.9407 34.2819 26.626 34.2819Z"
          fill="#6E51D9"/>
    <path d="M19.9807 40.9331C19.663 40.9331 19.3694 40.815 19.1546 40.5972C18.9398 40.3823 18.8217 40.0888 18.8248 39.7741C18.8248 39.1326 19.3331 38.6333 19.9746 38.6333C20.6162 38.6333 21.1215 39.1356 21.1245 39.7741C21.1245 40.4186 20.6283 40.927 19.9898 40.9331H19.9807Z"
          fill="#6E51D9"/>
    <path d="M26.632 40.9331C26.3142 40.9331 26.0237 40.815 25.8089 40.5972C25.594 40.3823 25.476 40.0888 25.4791 39.7741C25.4791 39.1356 25.9874 38.6333 26.6289 38.6333C27.2705 38.6333 27.7758 39.1356 27.7788 39.7771C27.7788 40.4217 27.2826 40.93 26.6441 40.9331H26.635H26.632Z"
          fill="#6E51D9"/>
    <path d="M41.4229 41.4747C41.0477 41.4747 40.6755 41.4747 40.3003 41.4686C39.6587 41.4596 39.1716 40.9754 39.1655 40.3399C39.1564 39.3081 39.1564 38.2429 39.1655 37.1747C39.1716 36.5241 39.6678 36.0339 40.3184 36.0339C40.9629 36.037 41.4501 36.5241 41.4622 37.1626C41.4683 37.5258 41.4683 37.8889 41.4653 38.2641V39.1689H42.3095C42.3912 39.1689 42.4669 39.1689 42.5455 39.1689C43.1992 39.184 43.6863 39.6863 43.6833 40.3339C43.6773 40.9693 43.1901 41.4565 42.5486 41.4656C42.1733 41.4717 41.8011 41.4747 41.4259 41.4747H41.4229Z"
          fill="#6E51D9"/>
</svg>
