<svg viewBox="0 0 60 60" fill="none" xmlns="http://www.w3.org/2000/svg">
    <rect width="60" height="60" rx="6" fill="#6E51D9" fill-opacity="0.16"/>
    <path d="M35.4608 49.3876L35.3311 49.3073C35.1797 49.2146 35.0283 49.1219 34.88 49.0261L33.95 48.4329C32.7388 47.6604 31.4874 46.8602 30.2607 46.0661C30.0939 45.958 29.9425 45.9085 29.788 45.9085C29.5841 45.9085 29.4172 46.0012 29.3091 46.0692C27.9588 46.9374 26.6055 47.7995 25.2522 48.6615L24.1059 49.3907H23.6238C23.5899 49.3691 23.559 49.3506 23.5219 49.332C23.1851 49.1621 22.9812 48.8809 22.9657 48.5596C22.9503 48.2444 23.1171 47.9478 23.4261 47.747C24.2912 47.1877 25.1595 46.6315 26.0277 46.0785C26.8403 45.5594 27.656 45.0372 28.4687 44.515C28.5892 44.4378 28.8765 44.2215 28.892 43.9249C28.9136 43.5541 28.9105 43.1926 28.9074 42.8095C28.9074 42.6735 28.9074 42.5314 28.9074 42.3923V42.0463C28.9074 42.0463 21.5938 42.0432 20.2992 42.0432C18.3557 42.0432 16.4153 42.0432 14.4719 42.0525C13.7643 42.0525 13.1556 41.8115 12.7014 41.3542C12.2472 40.8969 11.9969 40.2758 12 39.5992C12.0278 32.4865 12.0278 25.3799 12 18.4773C12 17.8006 12.2472 17.1734 12.7045 16.7161C13.1494 16.2681 13.755 16.0209 14.4101 16.0209H14.4595C14.9724 16.0302 15.5348 16.0364 16.233 16.0364C16.5822 16.0364 17.9726 16.0333 18.3187 16.0333C18.6894 16.0333 19.0571 16.0333 19.4279 16.0395C19.913 16.0395 20.1416 15.8108 20.3209 15.5636C22.5084 12.5356 25.385 11 28.8703 11C29.2658 11 29.6737 11.0185 30.0846 11.0587C33.2115 11.3553 35.7575 12.8817 37.6453 15.5976C37.8554 15.9004 38.115 16.0364 38.4796 16.0364C38.77 16.0364 39.0574 16.0364 39.3416 16.0364C39.8669 16.0364 40.3891 16.0364 40.9143 16.0395C41.4396 16.0395 41.9649 16.0425 42.4901 16.0425C43.5005 16.0425 44.3162 16.0364 45.0639 16.024H45.1165C45.79 16.024 46.408 16.2712 46.8591 16.7254C47.3195 17.1889 47.5698 17.8254 47.5667 18.5206C47.5451 23.4148 47.5482 28.3894 47.5482 33.2002C47.5482 35.3229 47.5482 37.4425 47.5482 39.5652C47.5482 39.7938 47.5451 40.0348 47.4956 40.2449C47.233 41.3758 46.3339 42.0525 45.0918 42.0525C43 42.0525 40.9082 42.0525 38.8164 42.0525H30.6871L30.6655 42.4943C30.6624 42.5592 30.6593 42.6055 30.6593 42.655C30.6593 42.7786 30.65 42.9114 30.6377 43.0536C30.6068 43.4151 30.5728 43.826 30.7551 44.1659C30.9405 44.5119 31.3113 44.7128 31.6419 44.8889C31.7531 44.9507 31.8643 45.0094 31.9663 45.0743C33.3134 45.9394 34.7039 46.8355 36.0819 47.7068C36.4465 47.9385 36.6103 48.2073 36.5917 48.5596C36.5732 48.9489 36.3816 49.2084 36.0047 49.3506C35.9676 49.3629 35.9367 49.3815 35.912 49.4H35.4578L35.4608 49.3876ZM14.5429 17.7914C14.3792 17.7914 14.1413 17.813 13.9651 17.986C13.789 18.1622 13.7674 18.4062 13.7674 18.6009C13.7767 25.7445 13.7767 32.7614 13.7674 39.4478C13.7674 39.6424 13.789 39.8865 13.9682 40.0657C14.1443 40.2418 14.3884 40.2666 14.58 40.2666C15.6491 40.2604 16.7058 40.2573 17.7625 40.2573H20.9326H27.5633C33.3598 40.2573 39.1563 40.2573 44.9527 40.2604C45.1381 40.2604 45.4131 40.2604 45.6078 40.0657C45.787 39.8865 45.8055 39.6424 45.8055 39.4725C45.7931 32.8974 45.7931 26.0628 45.8055 18.5855C45.8055 18.4124 45.787 18.1622 45.6078 17.986C45.4347 17.813 45.1968 17.7914 45.0083 17.7914C44.1185 17.7976 43.2441 17.7976 42.3696 17.7976H39.6846C39.595 17.7976 39.5054 17.8037 39.4096 17.813C39.3695 17.8161 39.3293 17.8223 39.2829 17.8254L38.8782 17.8563L38.9987 18.3661C39.0141 18.4341 39.0265 18.4866 39.0419 18.5391C39.5487 20.3281 39.5857 22.1449 39.147 23.9401C38.8164 25.3027 38.2139 26.5726 37.3611 27.7158L37.3364 27.7498C37.2468 27.8641 37.1015 28.0588 37.1664 28.3029C37.2097 28.4666 37.3364 28.5902 37.5403 28.6767L37.7257 28.754L37.8833 28.6304C38.22 28.3678 38.5105 28.2349 38.7484 28.2349C38.9338 28.2349 39.1006 28.3152 39.2768 28.4852C40.7197 29.8972 41.9 31.0775 42.9938 32.2084C43.5129 32.746 43.6952 33.4134 43.5283 34.1951C43.3398 35.0973 42.8053 35.6844 41.9402 35.9408C41.6899 36.015 41.4458 36.0521 41.211 36.0521C40.6239 36.0521 40.0863 35.8142 39.6135 35.3476C38.804 34.5473 37.9976 33.7409 37.1942 32.9345L36.2117 31.9519C35.6339 31.3772 35.6246 31.0064 36.1622 30.3699L36.3044 30.2L36.2086 29.9992C36.0634 29.6871 35.8564 29.6222 35.708 29.6222C35.5196 29.6222 35.3836 29.7273 35.2878 29.8076L35.2415 29.8416C33.3907 31.2073 31.2155 31.9303 28.9507 31.9303C26.1946 31.9303 23.5929 30.8519 21.6278 28.8961C19.2178 26.4953 18.1982 23.5415 18.5937 20.1149C18.6431 19.6978 18.7296 19.2837 18.8192 18.8481C18.8625 18.6442 18.9057 18.4371 18.9428 18.2301L19.017 17.847L18.6276 17.8223L18.5349 17.8161C18.4577 17.8099 18.3805 17.8037 18.3063 17.8037H16.2454C15.6862 17.8037 15.1269 17.8037 14.5676 17.7976H14.5429V17.7914ZM41.3407 34.1951C41.3407 34.1951 41.3686 34.1951 41.3809 34.1951L41.8629 34.2476L41.7548 33.7749C41.7486 33.7533 41.7486 33.7285 41.7455 33.7007C41.7331 33.5864 41.7146 33.4165 41.5848 33.2836C40.8865 32.5699 40.179 31.8654 39.4776 31.1609L38.7391 30.4225L37.8462 31.0991L38.6835 31.9334C39.4158 32.6657 40.111 33.3578 40.8217 34.0499C40.9669 34.192 41.1585 34.192 41.2511 34.192C41.2511 34.192 41.3346 34.192 41.3377 34.192L41.3407 34.1951ZM28.9661 12.7241C24.0657 12.7457 20.2436 16.6358 20.2683 21.5826C20.2899 26.3069 24.1769 30.1537 28.9321 30.1537H28.9692C33.8789 30.132 37.7102 26.2729 37.6948 21.3694C37.6793 16.6821 33.6997 12.7241 29.0032 12.7241H28.9661Z"
          fill="#6E51D9"/>
</svg>
