<svg width="150" height="150" viewBox="0 0 150 150" fill="none" xmlns="http://www.w3.org/2000/svg">
<path d="M75.5746 137.649C109.858 137.649 137.649 109.858 137.649 75.5746C137.649 41.2918 109.858 13.5 75.5746 13.5C41.2918 13.5 13.5 41.2918 13.5 75.5746C13.5 109.858 41.2918 137.649 75.5746 137.649Z" fill="#6E51D9" fill-opacity="0.16"/>
<mask id="mask0_804_2917" style="mask-type:alpha" maskUnits="userSpaceOnUse" x="0" y="0" width="150" height="150">
<rect width="150" height="150" fill="#D9D9D9"/>
</mask>
<g mask="url(#mask0_804_2917)">
<path fill-rule="evenodd" clip-rule="evenodd" d="M23.2812 114.219C25.0521 115.99 27.2917 116.875 30 116.875H120C122.708 116.875 124.948 115.99 126.719 114.219C128.49 112.448 129.375 110.208 129.375 107.5V42.5C129.375 39.7917 128.49 37.5521 126.719 35.7812C124.948 34.0104 122.708 33.125 120 33.125H30C27.2917 33.125 25.0521 34.0104 23.2812 35.7812C21.5104 37.5521 20.625 39.7917 20.625 42.5V107.5C20.625 110.208 21.5104 112.448 23.2812 114.219ZM120 112.5H30C28.75 112.5 27.6042 111.979 26.5625 110.937C25.5208 109.896 25 108.75 25 107.5V50H125V107.5C125 108.75 124.479 109.896 123.438 110.937C122.396 111.979 121.25 112.5 120 112.5ZM32.25 44.2501C33.4926 44.2501 34.5 43.2427 34.5 42.0001C34.5 40.7574 33.4926 39.7501 32.25 39.7501C31.0074 39.7501 30 40.7574 30 42.0001C30 43.2427 31.0074 44.2501 32.25 44.2501ZM41.251 42.0001C41.251 43.2428 40.2437 44.2501 39.001 44.2501C37.7584 44.2501 36.751 43.2428 36.751 42.0001C36.751 40.7575 37.7584 39.7501 39.001 39.7501C40.2437 39.7501 41.251 40.7575 41.251 42.0001ZM45.7509 44.2501C46.9935 44.2501 48.0009 43.2428 48.0009 42.0001C48.0009 40.7575 46.9935 39.7501 45.7509 39.7501C44.5083 39.7501 43.5009 40.7575 43.5009 42.0001C43.5009 43.2428 44.5083 44.2501 45.7509 44.2501Z" fill="#6E51D9"/>
<path d="M75 99C65.0748 99 57 90.9252 57 81C57 71.0748 65.0748 63 75 63C84.9252 63 93 71.0748 93 81C93 90.9252 84.9252 99 75 99ZM75 65.4C66.3982 65.4 59.4 72.3982 59.4 81C59.4 89.6018 66.3982 96.6 75 96.6C83.6018 96.6 90.6 89.6018 90.6 81C90.6 72.3982 83.6018 65.4 75 65.4Z" fill="#6E51D9"/>
<path d="M75 90.6004C74.3374 90.6004 73.8 90.063 73.8 89.4004V72.6004C73.8 71.9378 74.3374 71.4004 75 71.4004C75.6627 71.4004 76.2 71.9378 76.2 72.6004V89.4004C76.2 90.063 75.6627 90.6004 75 90.6004Z" fill="#6E51D9"/>
<path d="M83.4001 82.1998H66.6001C65.9374 82.1998 65.4001 81.6624 65.4001 80.9998C65.4001 80.3372 65.9374 79.7998 66.6001 79.7998H83.4001C84.0627 79.7998 84.6001 80.3372 84.6001 80.9998C84.6001 81.6624 84.0627 82.1998 83.4001 82.1998Z" fill="#6E51D9"/>
</g>
</svg>
