<svg width="24" height="24" viewBox="0 0 24 24" fill="none" xmlns="http://www.w3.org/2000/svg">
<mask id="mask0_989_4037" style="mask-type:alpha" maskUnits="userSpaceOnUse" x="0" y="0" width="24" height="24">
<rect width="24" height="24" fill="#D9D9D9"/>
</mask>
<g mask="url(#mask0_989_4037)">
<path d="M12 18.4662L14.5462 15.9201C14.6949 15.7713 14.874 15.6954 15.0836 15.6922C15.2933 15.689 15.4756 15.7649 15.6307 15.9201C15.7859 16.0752 15.8634 16.2559 15.8634 16.4623C15.8634 16.6688 15.7859 16.8495 15.6307 17.0046L12.6327 20.0027C12.5391 20.0963 12.4404 20.1623 12.3365 20.2008C12.2327 20.2393 12.1205 20.2585 12 20.2585C11.8795 20.2585 11.7673 20.2393 11.6635 20.2008C11.5596 20.1623 11.4609 20.0963 11.3673 20.0027L8.36924 17.0046C8.22052 16.8559 8.14455 16.6768 8.14134 16.4672C8.13814 16.2575 8.2141 16.0752 8.36924 15.9201C8.52435 15.7649 8.70511 15.6874 8.91151 15.6874C9.11793 15.6874 9.29869 15.7649 9.45381 15.9201L12 18.4662ZM12 5.59694L9.45381 8.14311C9.30509 8.29183 9.12594 8.36779 8.91634 8.37099C8.70672 8.37419 8.52435 8.29823 8.36924 8.14311C8.2141 7.98798 8.13654 7.80721 8.13654 7.60081C8.13654 7.39441 8.2141 7.21364 8.36924 7.05851L11.3673 4.06044C11.4609 3.96685 11.5596 3.90083 11.6635 3.86236C11.7673 3.82391 11.8795 3.80469 12 3.80469C12.1205 3.80469 12.2327 3.82391 12.3365 3.86236C12.4404 3.90083 12.5391 3.96685 12.6327 4.06044L15.6307 7.05851C15.7795 7.20723 15.8554 7.38639 15.8586 7.59601C15.8618 7.80561 15.7859 7.98798 15.6307 8.14311C15.4756 8.29823 15.2949 8.37579 15.0885 8.37579C14.882 8.37579 14.7013 8.29823 14.5462 8.14311L12 5.59694Z" fill="#252525"/>
</g>
</svg>
