<svg width="19" height="20" viewBox="0 0 19 20" fill="none" xmlns="http://www.w3.org/2000/svg">
<path d="M6.5 6V8.61222C6.5 9.16332 5.85724 9.46437 5.43388 9.11157L1.09921 5.49934C0.787372 5.23948 0.787372 4.76052 1.09921 4.50066L5.43388 0.888433C5.85724 0.53563 6.5 0.836683 6.5 1.38778V4H10.5C12.6217 4 14.6566 4.84285 16.1569 6.34315C17.6571 7.84344 18.5 9.87827 18.5 12C18.5 14.1217 17.6571 16.1566 16.1569 17.6569C14.6566 19.1571 12.6217 20 10.5 20H7.5C6.94772 20 6.5 19.5523 6.5 19C6.5 18.4477 6.94772 18 7.5 18H10.5C12.0913 18 13.6174 17.3679 14.7426 16.2426C15.8679 15.1174 16.5 13.5913 16.5 12C16.5 10.4087 15.8679 8.88258 14.7426 7.75736C13.6174 6.63214 12.0913 6 10.5 6H6.5Z" fill="#606060"/>
</svg>
