<svg width="130" height="40" viewBox="0 0 130 40" fill="none" xmlns="http://www.w3.org/2000/svg">
<path d="M25 10H5V30H0V5H15V0L25 10Z" fill="#6E51D9"/>
<path d="M5 30H25V10H30V35H15V40L5 30Z" fill="#6E51D9"/>
<path d="M20 22.5H10V25H20V22.5Z" fill="#6E51D9"/>
<path d="M20 15H10V17.5H20V15Z" fill="#6E51D9"/>
<path d="M61.6136 13.7565L57.394 28.1783H53.4617L50.8312 18.101L48.2007 28.1783H44.2414L40 13.7565H43.699L46.2482 24.7451L49.0088 13.7565H52.8597L55.5662 24.7179L58.1153 13.7565H61.6028H61.6136Z" fill="#252525"/>
<path d="M69.0713 14.2012C69.8252 13.7673 70.6876 13.5504 71.6639 13.5504V17.3796H70.6984C69.554 17.3796 68.6916 17.6507 68.1059 18.1877C67.5201 18.7246 67.2327 19.663 67.2327 20.9972V28.1837H63.5879V13.7619H67.2327V16.0019C67.6991 15.2372 68.312 14.6406 69.0659 14.2067L69.0713 14.2012Z" fill="#252525"/>
<path d="M87.9079 13.7565L78.9804 35.0014H75.1025L78.2265 27.8149L72.4448 13.7565H76.5343L80.255 23.8339L84.03 13.7565H87.9079Z" fill="#252525"/>
<path d="M94.1017 16.7504V23.7253C94.1017 24.2135 94.221 24.5606 94.4542 24.7776C94.6874 24.9945 95.0834 25.103 95.6366 25.103H97.3288V28.1728H95.04C91.9701 28.1728 90.4298 26.6813 90.4298 23.6928V16.7396H88.7104V13.7456H90.4298V10.1768H94.1017V13.7456H97.3288V16.7396H94.1017V16.7504Z" fill="#252525"/>
<path d="M100.209 11.4297C99.7858 11.0229 99.5688 10.5131 99.5688 9.90564C99.5688 9.29818 99.7804 8.78835 100.209 8.38157C100.637 7.97478 101.169 7.76868 101.809 7.76868C102.449 7.76868 102.986 7.97478 103.409 8.38157C103.832 8.78835 104.049 9.29818 104.049 9.90564C104.049 10.5131 103.837 11.0229 103.409 11.4297C102.986 11.8365 102.449 12.0426 101.809 12.0426C101.169 12.0426 100.632 11.8365 100.209 11.4297ZM103.604 13.7619V28.1837H99.9594V13.7619H103.604Z" fill="#252525"/>
<path d="M113.812 16.7504H111.284V28.1782H107.585V16.7504H105.947V13.7565H107.585V13.0297C107.585 11.2616 108.09 9.95987 109.093 9.12462C110.102 8.28936 111.621 7.89885 113.649 7.95309V11.0229C112.765 11.0067 112.147 11.1531 111.799 11.4677C111.452 11.7823 111.279 12.3463 111.279 13.1599V13.7565H113.806V16.7504H113.812Z" fill="#252525"/>
<path d="M129.98 13.7565L121.053 35.0014H117.175L120.299 27.8149L114.517 13.7565H118.607L122.327 23.8339L126.102 13.7565H129.98Z" fill="#252525"/>
</svg>
