<svg viewBox="0 0 24 25" fill="none" xmlns="http://www.w3.org/2000/svg">
    <g clip-path="url(#clip0_526_94809)">
        <path fill-rule="evenodd" clip-rule="evenodd"
              d="M0 12.5C0 5.87432 5.37432 0.5 12 0.5C18.6257 0.5 24 5.87432 24 12.5C24 19.1257 18.6257 24.5 12 24.5C5.37432 24.5 0 19.1257 0 12.5ZM17.6242 5.9L12.9226 11.3684L12.9153 11.3756L18.0293 18.8186H14.268L10.8249 13.806L6.51389 18.8186H5.39996L10.3331 13.0826L5.39996 5.9H9.16127L12.4235 10.645L16.5103 5.9H17.6242ZM10.8973 12.4244L11.3963 13.1405L14.8032 18.0085H16.5175L12.3439 12.041L11.8448 11.325L8.63324 6.73182H6.91895L10.8973 12.4244Z"
              fill="#606060"/>
    </g>
    <defs>
        <clipPath id="clip0_526_94809">
            <rect width="24" height="24" fill="white" transform="translate(0 0.5)"/>
        </clipPath>
    </defs>
</svg>
